<?xml version="1.0" encoding="UTF-8" standalone="no"?>
<!DOCTYPE svg PUBLIC "-//W3C//DTD SVG 1.1//EN" "http://www.w3.org/Graphics/SVG/1.1/DTD/svg11.dtd">
<svg width="100%" height="100%" viewBox="0 0 3618 802" version="1.1" xmlns="http://www.w3.org/2000/svg" xmlns:xlink="http://www.w3.org/1999/xlink" xml:space="preserve" xmlns:serif="http://www.serif.com/" style="fill-rule:evenodd;clip-rule:evenodd;stroke-linecap:round;stroke-linejoin:round;stroke-miterlimit:1.5;">
    <g transform="matrix(1,0,0,1,-11333,-527.873)">
        <g transform="matrix(1,0,0,1,-0.333333,0)">
            <g transform="matrix(1,0,0,1,0,-14.0098)">
                <g transform="matrix(0.536955,0,0,0.536955,14140,403.14)">
                    <circle cx="1360.77" cy="921.019" r="53.547" style="fill:rgb(255,201,6);"/>
                </g>
                <g transform="matrix(0.536955,0,0,0.536955,14140,403.14)">
                    <path d="M1360.77,849.764C1400.1,849.764 1432.03,881.693 1432.03,921.019C1432.03,960.346 1400.1,992.275 1360.77,992.275C1321.44,992.275 1289.52,960.346 1289.52,921.019C1289.52,881.693 1321.44,849.764 1360.77,849.764ZM1360.77,885.181C1340.99,885.181 1324.93,901.24 1324.93,921.019C1324.93,940.799 1340.99,956.858 1360.77,956.858C1380.55,956.858 1396.61,940.799 1396.61,921.019C1396.61,901.24 1380.55,885.181 1360.77,885.181Z" style="fill:rgb(35,31,32);"/>
                </g>
                <g transform="matrix(0.536955,0,0,0.536955,13839,403.14)">
                    <circle cx="1360.77" cy="921.019" r="53.547" style="fill:rgb(255,201,6);"/>
                </g>
                <g transform="matrix(0.536955,0,0,0.536955,13839,403.14)">
                    <path d="M1360.77,849.764C1400.1,849.764 1432.03,881.693 1432.03,921.019C1432.03,960.346 1400.1,992.275 1360.77,992.275C1321.44,992.275 1289.52,960.346 1289.52,921.019C1289.52,881.693 1321.44,849.764 1360.77,849.764ZM1360.77,885.181C1340.99,885.181 1324.93,901.24 1324.93,921.019C1324.93,940.799 1340.99,956.858 1360.77,956.858C1380.55,956.858 1396.61,940.799 1396.61,921.019C1396.61,901.24 1380.55,885.181 1360.77,885.181Z" style="fill:rgb(35,31,32);"/>
                </g>
                <g transform="matrix(0.902038,0,0,0.902038,13740.6,-113.451)">
                    <path d="M840.126,994.475C840.126,858.879 950.213,748.792 1085.81,748.792C1221.4,748.792 1331.49,858.879 1331.49,994.475L840.126,994.475Z" style="fill:rgb(255,201,6);"/>
                </g>
                <g transform="matrix(0.902038,0,0,0.902038,13740.6,-113.451)">
                    <path d="M829.585,994.475C829.585,853.061 944.395,738.251 1085.81,738.251C1227.22,738.251 1342.03,853.061 1342.03,994.475C1342.03,1000.3 1337.31,1005.02 1331.49,1005.02L840.126,1005.02C834.305,1005.02 829.585,1000.3 829.585,994.475ZM850.9,983.934L1320.72,983.934C1315.2,859.039 1212.06,759.333 1085.81,759.333C959.563,759.333 856.421,859.039 850.9,983.934Z" style="fill:rgb(35,31,32);"/>
                </g>
                <g transform="matrix(0.536955,0,0,0.536955,14150,403.438)">
                    <path d="M887.586,1493.14L815.86,708.001C815.86,572.405 925.947,462.319 1061.54,462.319C1197.14,462.319 1307.23,572.405 1307.23,708.001L1235.6,1492.01L1088.38,1386.82C1088.38,1386.82 1090.5,1291.31 1087.73,1267.9C1085.95,1259.1 1079.13,1223.33 1060.74,1222.28C1060.67,1222.28 1060.6,1222.28 1060.53,1222.28C1060.46,1222.28 1060.39,1222.28 1060.32,1222.28C1041.94,1223.46 1035.38,1259.28 1033.66,1268.1C1031.06,1291.53 1033.88,1387.02 1033.88,1387.02L887.586,1493.14Z" style="fill:rgb(248,232,130);"/>
                </g>
                <g transform="matrix(0.536955,0,0,0.536955,14150,403.438)">
                    <path d="M887.586,1493.14L815.86,708.001C815.86,572.405 925.947,462.319 1061.54,462.319C1197.14,462.319 1307.23,572.405 1307.23,708.001L1235.6,1492.01L1088.38,1386.82C1088.38,1386.82 1090.5,1291.31 1087.73,1267.9C1085.95,1259.1 1079.13,1223.33 1060.74,1222.28C1060.67,1222.28 1060.6,1222.28 1060.53,1222.28C1060.46,1222.28 1060.39,1222.28 1060.32,1222.28C1041.94,1223.46 1035.38,1259.28 1033.66,1268.1C1031.06,1291.53 1033.88,1387.02 1033.88,1387.02L887.586,1493.14ZM1059.04,1186.89C1059.72,1186.86 1060.41,1186.85 1061.1,1186.86C1061.35,1186.87 1061.6,1186.87 1061.85,1186.88C1062.08,1186.89 1062.31,1186.9 1062.49,1186.91C1062.58,1186.91 1062.66,1186.92 1062.75,1186.92C1078.57,1187.82 1092.5,1195.87 1102.86,1209.92C1114.56,1225.8 1120.72,1252.34 1122.45,1260.9C1122.64,1261.84 1122.79,1262.79 1122.9,1263.74C1125,1281.45 1124.51,1338.76 1124.09,1368.81C1124.09,1368.81 1205.95,1427.3 1205.95,1427.3C1205.95,1427.3 1271.8,706.449 1271.8,706.439C1270.96,591.108 1177.07,497.735 1061.54,497.735C946.013,497.735 852.12,591.112 851.283,706.449L917.191,1427.91C917.191,1427.91 998.032,1369.27 998.032,1369.27C997.393,1339.21 996.495,1281.91 998.463,1264.19C998.569,1263.24 998.714,1262.29 998.897,1261.34C1000.56,1252.77 1006.53,1226.19 1018.12,1210.22C1028.37,1196.11 1042.24,1187.95 1058.06,1186.94C1058.19,1186.93 1058.32,1186.92 1058.45,1186.91C1058.61,1186.91 1058.82,1186.9 1059.04,1186.89Z" style="fill:rgb(35,31,32);"/>
                </g>
                <g transform="matrix(0.536955,0,0,0.536955,13561.1,185.583)">
                    <path d="M2331.11,1910.95L2325.74,1969.77C2325.74,2062.2 2250.69,2137.25 2158.26,2137.25C2065.82,2137.25 1990.78,2062.2 1990.78,1969.77L1985.52,1912.16L2130.03,1844.2C2130.03,1844.2 2133.91,1891.66 2136.74,1916.01C2139.57,1940.36 2148.86,1996.67 2148.86,1996.67L2102.7,2037.64L2105.74,2040.23L2158.66,2018.73L2206.03,2040.23L2209.05,2037.64L2168.3,1996.6C2168.3,1996.6 2177.18,1940.22 2179.84,1915.85C2182.49,1891.48 2186.03,1844 2186.03,1844L2331.11,1910.95Z" style="fill:rgb(244,123,32);"/>
                </g>
                <g transform="matrix(0.536955,0,0,0.536955,13561.1,185.583)">
                    <path d="M2331.11,1910.95L2325.74,1969.77C2325.74,2062.2 2250.69,2137.25 2158.26,2137.25C2065.82,2137.25 1990.78,2062.2 1990.78,1969.77L1985.52,1912.16L2130.03,1844.2C2130.03,1844.2 2133.91,1891.66 2136.74,1916.01C2139.57,1940.36 2148.86,1996.67 2148.86,1996.67L2102.7,2037.64L2105.74,2040.23L2158.66,2018.73L2206.03,2040.23L2209.05,2037.64L2168.3,1996.6C2168.3,1996.6 2177.18,1940.22 2179.84,1915.85C2182.49,1891.48 2186.03,1844 2186.03,1844L2331.11,1910.95ZM2206.03,1984.33L2234.18,2012.68C2241.11,2019.66 2244.83,2029.21 2244.44,2039.04C2244.05,2048.87 2239.59,2058.09 2232.13,2064.5L2229.12,2067.09C2218.66,2076.08 2203.94,2078.18 2191.39,2072.48L2157.89,2057.27L2119.08,2073.04C2106.82,2078.02 2092.81,2075.76 2082.75,2067.17L2079.71,2064.57C2071.92,2057.92 2067.39,2048.22 2067.29,2037.98C2067.19,2027.74 2071.53,2017.95 2079.2,2011.15C2079.2,2011.15 2110.8,1983.1 2110.8,1983.1C2107.77,1964.08 2103.38,1935.68 2101.56,1920.1C2100.83,1913.8 2100.03,1905.98 2099.24,1897.82L2023.04,1933.65L2026.05,1966.54C2026.15,1967.62 2026.2,1968.69 2026.2,1969.77C2026.2,2042.65 2085.37,2101.83 2158.26,2101.83C2231.15,2101.83 2290.32,2042.65 2290.32,1969.77C2290.32,1968.69 2290.37,1967.62 2290.47,1966.54L2293.57,1932.63C2293.57,1932.63 2217.21,1897.39 2217.21,1897.39C2216.48,1905.56 2215.73,1913.39 2215.04,1919.69C2213.3,1935.72 2208.92,1965.31 2206.03,1984.33Z" style="fill:white;"/>
                </g>
                <g transform="matrix(0.536955,0,0,0.536955,14150,403.438)">
                    <path d="M835.299,920.781L815.86,708.001L815.86,707.981L1307.23,707.981L1307.23,708.001L1287.79,920.781L835.299,920.781Z" style="fill:rgb(251,173,23);"/>
                </g>
                <g transform="matrix(0.536955,0,0,0.536955,14150,403.438)">
                    <path d="M815.86,708.001L815.86,707.981L1307.23,707.981L1307.23,708.001L1287.79,920.781L835.299,920.781L815.86,708.001ZM854.658,743.398L867.627,885.365L1255.46,885.365L1268.43,743.398L854.658,743.398Z" style="fill:none;"/>
                </g>
                <g transform="matrix(0.536955,0,0,0.536955,14150,403.438)">
                    <path d="M1234.4,1505.22L1229.02,1564.04C1229.02,1656.48 1153.98,1731.52 1061.54,1731.52C969.108,1731.52 894.063,1656.48 894.063,1564.04L888.8,1506.43L1033.31,1438.48C1033.31,1438.48 1037.19,1485.93 1040.03,1510.28C1042.86,1534.63 1052.15,1590.94 1052.15,1590.94L1005.99,1631.91L1009.03,1634.51L1061.94,1613.01L1109.32,1634.51L1112.33,1631.91L1071.58,1590.88C1071.58,1590.88 1080.46,1534.5 1083.12,1510.13C1085.78,1485.76 1089.31,1438.27 1089.31,1438.27L1234.4,1505.22ZM1109.31,1578.61L1137.46,1606.96C1144.39,1613.94 1148.11,1623.49 1147.72,1633.31C1147.34,1643.14 1142.88,1652.37 1135.42,1658.78L1132.4,1661.37C1121.94,1670.35 1107.23,1672.46 1094.68,1666.76L1061.17,1651.55L1022.36,1667.32C1010.1,1672.3 996.092,1670.04 986.031,1661.44L982.993,1658.85C975.202,1652.2 970.672,1642.5 970.574,1632.26C970.475,1622.01 974.817,1612.23 982.478,1605.43C982.478,1605.43 1014.08,1577.38 1014.08,1577.38C1011.05,1558.35 1006.66,1529.96 1004.85,1514.38C1004.11,1508.08 1003.31,1500.26 1002.52,1492.09L926.328,1527.92L929.333,1560.82C929.431,1561.89 929.48,1562.97 929.48,1564.04C929.48,1636.93 988.655,1696.11 1061.54,1696.11C1134.43,1696.11 1193.61,1636.93 1193.61,1564.04C1193.61,1562.97 1193.65,1561.89 1193.75,1560.82L1196.85,1526.9C1196.85,1526.9 1120.49,1491.67 1120.49,1491.67C1119.76,1499.83 1119.02,1507.66 1118.33,1513.97C1116.58,1530 1112.2,1559.59 1109.31,1578.61ZM887.586,1493.14L815.86,708.001C815.86,572.405 925.947,462.319 1061.54,462.319C1197.14,462.319 1307.23,572.405 1307.23,708.001L1235.6,1492.01L1088.38,1386.82C1088.38,1386.82 1090.5,1291.31 1087.73,1267.9C1085.95,1259.1 1079.13,1223.33 1060.74,1222.28C1060.67,1222.28 1060.6,1222.28 1060.53,1222.28C1060.46,1222.28 1060.39,1222.28 1060.32,1222.28C1041.94,1223.46 1035.38,1259.28 1033.66,1268.1C1031.06,1291.53 1033.88,1387.02 1033.88,1387.02L887.586,1493.14ZM1059.04,1186.89C1059.72,1186.86 1060.41,1186.85 1061.1,1186.86C1061.35,1186.87 1061.6,1186.87 1061.85,1186.88C1062.08,1186.89 1062.31,1186.9 1062.49,1186.91C1062.58,1186.91 1062.66,1186.92 1062.75,1186.92C1078.57,1187.82 1092.5,1195.87 1102.86,1209.92C1114.56,1225.8 1120.72,1252.34 1122.45,1260.9C1122.64,1261.84 1122.79,1262.79 1122.9,1263.74C1125,1281.45 1124.51,1338.76 1124.09,1368.81C1124.09,1368.81 1205.95,1427.3 1205.95,1427.3C1205.95,1427.3 1271.8,706.449 1271.8,706.439C1270.96,591.108 1177.07,497.735 1061.54,497.735C946.013,497.735 852.12,591.112 851.283,706.449L917.191,1427.91C917.191,1427.91 998.032,1369.27 998.032,1369.27C997.393,1339.21 996.495,1281.91 998.463,1264.19C998.569,1263.24 998.714,1262.29 998.897,1261.34C1000.56,1252.77 1006.53,1226.19 1018.12,1210.22C1028.37,1196.11 1042.24,1187.95 1058.06,1186.94C1058.19,1186.93 1058.32,1186.92 1058.45,1186.91C1058.61,1186.91 1058.82,1186.9 1059.04,1186.89Z" style="fill:rgb(35,31,32);"/>
                </g>
                <g transform="matrix(0.536955,0,0,0.536955,14150,403.438)">
                    <path d="M648.817,725.71C639.044,725.71 631.109,717.775 631.109,708.001C631.109,698.228 639.044,690.293 648.817,690.293L1474.27,690.293C1484.04,690.293 1491.98,698.228 1491.98,708.001C1491.98,717.775 1484.04,725.71 1474.27,725.71L648.817,725.71Z" style="fill:rgb(35,31,32);"/>
                </g>
                <g transform="matrix(0.536955,0,0,0.536955,14150,403.438)">
                    <path d="M1043.84,295.276C1043.84,285.502 1051.77,277.567 1061.54,277.567C1071.32,277.567 1079.25,285.502 1079.25,295.276L1079.25,462.319C1079.25,472.092 1071.32,480.027 1061.54,480.027C1051.77,480.027 1043.84,472.092 1043.84,462.319L1043.84,295.276Z" style="fill:rgb(35,31,32);"/>
                </g>
                <g transform="matrix(0.379684,-0.379684,0.379684,0.379684,14048.1,917.837)">
                    <path d="M1043.84,295.276C1043.84,285.502 1051.77,277.567 1061.54,277.567C1071.32,277.567 1079.25,285.502 1079.25,295.276L1079.25,462.319C1079.25,472.092 1071.32,480.027 1061.54,480.027C1051.77,480.027 1043.84,472.092 1043.84,462.319L1043.84,295.276Z" style="fill:rgb(35,31,32);"/>
                </g>
                <g transform="matrix(0.379684,0.379684,-0.379684,0.379684,14585.8,111.734)">
                    <path d="M1043.84,295.276C1043.84,285.502 1051.77,277.567 1061.54,277.567C1071.32,277.567 1079.25,285.502 1079.25,295.276L1079.25,462.319C1079.25,472.092 1071.32,480.027 1061.54,480.027C1051.77,480.027 1043.84,472.092 1043.84,462.319L1043.84,295.276Z" style="fill:rgb(35,31,32);"/>
                </g>
                <g transform="matrix(0.536955,0,0,0.536955,14150,403.438)">
                    <path d="M1043.84,708.001C1043.84,698.228 1051.77,690.293 1061.54,690.293C1071.32,690.293 1079.25,698.228 1079.25,708.001L1079.25,984.684C1079.25,994.458 1071.32,1002.39 1061.54,1002.39C1051.77,1002.39 1043.84,994.458 1043.84,984.684L1043.84,708.001Z" style="fill:rgb(35,31,32);"/>
                </g>
                <g transform="matrix(0.536955,0,0,0.536955,14144.6,403.438)">
                    <path d="M1285.16,803.553C1294.94,803.553 1302.87,811.488 1302.87,821.261C1302.87,831.035 1294.94,838.969 1285.16,838.969L1163.26,838.969C1153.48,838.969 1145.55,831.035 1145.55,821.261C1145.55,811.488 1153.48,803.553 1163.26,803.553L1285.16,803.553Z" style="fill:rgb(35,31,32);"/>
                </g>
                <g transform="matrix(0.536955,0,0,0.536955,13973.8,403.438)">
                    <path d="M1295.16,803.553C1304.94,803.553 1312.87,811.488 1312.87,821.261C1312.87,831.035 1304.94,838.969 1295.16,838.969L1173.26,838.969C1163.48,838.969 1155.55,831.035 1155.55,821.261C1155.55,811.488 1163.48,803.553 1173.26,803.553L1295.16,803.553Z" style="fill:rgb(35,31,32);"/>
                </g>
                <g transform="matrix(0.536955,0,0,0.536955,14150,403.438)">
                    <path d="M1285.16,902.756C1294.94,902.756 1302.87,910.691 1302.87,920.464C1302.87,930.238 1294.94,938.173 1285.16,938.173L835.02,938.173C825.247,938.173 817.312,930.238 817.312,920.464C817.312,910.691 825.247,902.756 835.02,902.756L1285.16,902.756Z" style="fill:rgb(35,31,32);"/>
                </g>
                <g transform="matrix(0.536955,0,0,0.536955,14137.7,403.66)">
                    <path d="M1005.7,1060.07C995.923,1060.07 987.988,1052.14 987.988,1042.37C987.988,1032.59 995.923,1024.66 1005.7,1024.66L1163.26,1024.66C1173.03,1024.66 1180.96,1032.59 1180.96,1042.37C1180.96,1052.14 1173.03,1060.07 1163.26,1060.07L1005.7,1060.07Z" style="fill:rgb(35,31,32);"/>
                </g>
            </g>
        </g>
        <g transform="matrix(1,0,0,1,-0.333333,0)">
            <g transform="matrix(1,0,0,1,0,-90.2732)">
                <g transform="matrix(1.74203,0,0,1.74203,9888.19,-627.115)">
                    <path d="M840.126,994.475C840.126,858.879 950.213,748.792 1085.81,748.792C1221.4,748.792 1331.49,858.879 1331.49,994.475L840.126,994.475Z" style="fill:rgb(255,201,6);"/>
                </g>
                <g transform="matrix(1.12433,0,0,1.12433,-1348.85,23.5095)">
                    <path d="M11279.7,970.155C11279.7,751.05 11457.6,573.165 11676.7,573.165C11895.8,573.165 12073.7,751.05 12073.7,970.155L11279.7,970.155Z" style="fill:rgb(255,201,6);"/>
                    <path d="M11279.7,970.155C11279.7,751.05 11457.6,573.165 11676.7,573.165C11895.8,573.165 12073.7,751.05 12073.7,970.155L11279.7,970.155ZM11296.8,953.478L12056.7,953.478C12047.9,751.302 11881,589.841 11676.7,589.841C11472.4,589.841 11305.5,751.302 11296.8,953.478Z"/>
                </g>
                <g transform="matrix(1,0,0,1,0.333333,85.7732)">
                    <path d="M11779.4,591.528L11779.4,762.258" style="fill:none;stroke:black;stroke-width:18.75px;"/>
                </g>
                <g transform="matrix(0.707107,-0.707107,0.707107,0.707107,2722.6,8717.22)">
                    <path d="M11779.4,591.528L11779.4,762.258" style="fill:none;stroke:black;stroke-width:18.75px;"/>
                </g>
                <g transform="matrix(0.659893,0.659893,-0.659893,0.659893,4698.92,-7350.38)">
                    <path d="M11779.4,591.528L11779.4,762.258" style="fill:none;stroke:black;stroke-width:20.09px;"/>
                </g>
                <g transform="matrix(0.610894,0,0,0.607329,7158.37,-518.645)">
                    <path d="M8000.9,2688.71C7993.08,2922.66 7800.7,3110.18 7564.87,3110.18C7329.03,3110.18 7136.65,2922.66 7128.83,2688.71L8000.9,2688.71Z" style="fill:rgb(251,173,23);"/>
                </g>
                <g transform="matrix(1,0,0,1,0.333333,90.2732)">
                    <path d="M11513,1024.01C11512.9,1021.03 11512.8,1018.03 11512.8,1015.01C11512.8,868.774 11632.3,750.046 11779.4,750.046C11926.5,750.046 12045.9,868.774 12045.9,1015.01C12045.9,1018.03 12045.8,1021.03 12045.7,1024.01L11513,1024.01Z" style="fill:rgb(248,232,130);"/>
                </g>
                <g transform="matrix(0.610894,0,0,0.607329,7158.37,-518.645)">
                    <path d="M7564.87,2237.61C7805.66,2237.61 8001.15,2433.1 8001.15,2673.89C8001.15,2914.69 7805.66,3110.18 7564.87,3110.18C7324.07,3110.18 7128.58,2914.69 7128.58,2673.89C7128.58,2433.1 7324.07,2237.61 7564.87,2237.61ZM7564.87,2268.48C7341.06,2268.48 7159.28,2450.09 7159.28,2673.89C7159.28,2897.7 7341.06,3079.31 7564.87,3079.31C7788.67,3079.31 7970.46,2897.7 7970.46,2673.89C7970.46,2450.09 7788.67,2268.48 7564.87,2268.48Z"/>
                </g>
                <g transform="matrix(0.937618,0,0,1,734.641,85.7732)">
                    <path d="M11552,1151.33L12009,1151.33" style="fill:none;stroke:black;stroke-width:19.34px;"/>
                </g>
                <g transform="matrix(1.13579,0,0,1,-1598.1,-45.0459)">
                    <path d="M11552,1151.33L12009,1151.33" style="fill:none;stroke:black;stroke-width:15.58px;"/>
                </g>
                <g transform="matrix(1,0,0,1,0.333333,85.7732)">
                    <path d="M11780.2,1019.51L11780.2,1209.61" style="fill:none;stroke:black;stroke-width:18.75px;"/>
                </g>
                <g transform="matrix(1,0,0,1,2.65867,86.2552)">
                    <path d="M12021.2,1090.14L11863.2,1090.14" style="fill:none;stroke:black;stroke-width:18.75px;"/>
                </g>
                <g transform="matrix(0.692527,0,0,1,3510.26,234.331)">
                    <path d="M12021.2,1090.14L11863.2,1090.14" style="fill:none;stroke:black;stroke-width:21.8px;"/>
                </g>
                <g transform="matrix(1,0,0,1,8.65867,86.2552)">
                    <path d="M11528.6,1090.14L11695.5,1090.14" style="fill:none;stroke:black;stroke-width:18.75px;"/>
                </g>
                <g transform="matrix(1,0,0,1,-15.26,61.7848)">
                    <circle cx="12088.2" cy="1138.55" r="42.298" style="fill:rgb(255,201,6);"/>
                    <path d="M12088.2,1096.25C12111.5,1096.25 12130.5,1115.2 12130.5,1138.55C12130.5,1161.89 12111.5,1180.85 12088.2,1180.85C12064.8,1180.85 12045.9,1161.89 12045.9,1138.55C12045.9,1115.2 12064.8,1096.25 12088.2,1096.25ZM12088.2,1115C12075.2,1115 12064.6,1125.55 12064.6,1138.55C12064.6,1151.55 12075.2,1162.1 12088.2,1162.1C12101.2,1162.1 12111.7,1151.55 12111.7,1138.55C12111.7,1125.55 12101.2,1115 12088.2,1115Z"/>
                </g>
                <g transform="matrix(1,0,0,1,-601.717,61.7848)">
                    <circle cx="12088.2" cy="1138.55" r="42.298" style="fill:rgb(255,201,6);"/>
                    <path d="M12088.2,1096.25C12111.5,1096.25 12130.5,1115.2 12130.5,1138.55C12130.5,1161.89 12111.5,1180.85 12088.2,1180.85C12064.8,1180.85 12045.9,1161.89 12045.9,1138.55C12045.9,1115.2 12064.8,1096.25 12088.2,1096.25ZM12088.2,1115C12075.2,1115 12064.6,1125.55 12064.6,1138.55C12064.6,1151.55 12075.2,1162.1 12088.2,1162.1C12101.2,1162.1 12111.7,1151.55 12111.7,1138.55C12111.7,1125.55 12101.2,1115 12088.2,1115Z"/>
                </g>
            </g>
        </g>
        <g transform="matrix(1,0,0,1,-0.333333,0)">
            <g transform="matrix(1.25375,0,0,1.25375,2429.02,-1250.05)">
                <g transform="matrix(893.523,0,0,893.523,9303.55,2057.68)">
                </g>
                <text x="9055.31px" y="2057.68px" style="font-family:'ArialMT', 'Arial', sans-serif;font-size:893.523px;fill:rgb(35,31,32);">I</text>
            </g>
        </g>
        <g transform="matrix(1,0,0,1,-0.333333,0)">
            <g transform="matrix(1,0,0,1,5073.54,-864.931)">
                <g transform="matrix(251.499,0,0,251.499,7474.03,1882.36)">
                </g>
                <text x="7327.16px" y="1882.36px" style="font-family:'ArialMT', 'Arial', sans-serif;font-size:251.499px;fill:rgb(35,31,32);">+</text>
            </g>
        </g>
        <g transform="matrix(1,0,0,1,-0.333333,0)">
            <g transform="matrix(1,0,0,1,6237.9,-864.931)">
                <g transform="matrix(251.499,0,0,251.499,7474.03,1882.36)">
                </g>
                <text x="7327.16px" y="1882.36px" style="font-family:'ArialMT', 'Arial', sans-serif;font-size:251.499px;fill:rgb(35,31,32);">+</text>
            </g>
        </g>
        <g transform="matrix(1,0,0,1,-0.333333,0)">
            <g transform="matrix(1,0,0,1,6840.2,-864.685)">
                <g transform="matrix(251.499,0,0,251.499,7474.03,1882.36)">
                </g>
                <text x="7327.16px" y="1882.36px" style="font-family:'ArialMT', 'Arial', sans-serif;font-size:251.499px;fill:rgb(35,31,32);">=</text>
            </g>
        </g>
        <g transform="matrix(1,0,0,1,-0.333333,0)">
            <g transform="matrix(0.707107,-0.707107,0.707107,0.707107,4891.57,8482.56)">
                <g transform="matrix(4.16667,0,0,4.16667,10160.1,-485.422)">
                    <path d="M190.003,271.384L277.179,198.43C282.537,193.729 286.622,187.751 289.056,181.051L295.879,166.08C298.638,158.486 291.276,151.124 283.682,153.883L268.711,160.707C262.01,163.14 256.034,167.225 251.333,172.583L179.847,258.004L151.202,258.004C149.24,258.004 147.357,258.784 145.969,260.172L144.696,261.445C143.596,262.545 144.006,264.416 145.466,264.954L168.233,273.344C168.028,275.052 168.582,276.827 169.881,278.126L170.759,279.003L171.636,279.881C172.658,280.902 173.974,281.461 175.319,281.555L183.054,302.541C183.592,304.001 185.462,304.412 186.563,303.312L187.835,302.038C189.224,300.65 190.003,298.768 190.003,296.805L190.003,271.384Z" style="fill:rgb(98,203,230);fill-rule:nonzero;"/>
                    <path d="M190.003,271.384L190.003,296.805C190.003,298.768 189.224,300.65 187.835,302.038L186.563,303.312C185.462,304.412 183.592,304.001 183.054,302.541L175.319,281.555C173.974,281.461 172.658,280.902 171.636,279.881L170.759,279.003L169.881,278.126C168.582,276.827 168.028,275.052 168.233,273.344L145.466,264.954C144.006,264.416 143.596,262.545 144.696,261.445L145.969,260.172C147.357,258.784 149.24,258.004 151.202,258.004L179.847,258.004L251.333,172.583C256.034,167.225 262.01,163.14 268.711,160.707L283.682,153.883C291.276,151.124 298.638,158.486 295.879,166.08L289.056,181.051C286.622,187.751 282.537,193.729 277.179,198.43L190.003,271.384ZM151.832,262.504L169.789,269.122C171.744,269.842 172.949,271.811 172.701,273.88C172.655,274.26 172.774,274.655 173.063,274.944L173.939,275.819L173.943,275.823C173.943,275.823 174.817,276.698 174.82,276.701C175.046,276.925 175.336,277.045 175.633,277.066C177.399,277.189 178.929,278.337 179.541,279.999L185.503,296.174L185.503,271.384C185.503,270.052 186.093,268.788 187.115,267.933C187.115,267.933 272.097,196.815 274.254,195.009C279.022,190.814 282.658,185.485 284.826,179.514C284.867,179.403 284.912,179.293 284.961,179.185C284.961,179.185 291.699,164.4 291.699,164.399C292.995,160.495 289.267,156.767 285.362,158.063L270.577,164.802C270.469,164.851 270.359,164.896 270.247,164.937C264.274,167.105 258.946,170.743 254.749,175.513L183.298,260.892C182.443,261.914 181.179,262.504 179.847,262.504L151.832,262.504Z" style="fill:rgb(0,5,6);"/>
                </g>
                <g transform="matrix(4.16667,0,0,4.16667,10160.1,-485.422)">
                    <path d="M231.459,185.966L165.016,175.572C162.462,175.173 159.873,176.017 158.045,177.844L155.229,180.661C154.177,181.713 154.482,183.488 155.824,184.128L210.981,210.435L231.459,185.966Z" style="fill:rgb(98,203,230);fill-rule:nonzero;"/>
                    <path d="M231.459,185.966L210.981,210.435L155.824,184.128C154.482,183.488 154.177,181.713 155.229,180.661L158.045,177.844C159.873,176.017 162.462,175.173 165.016,175.572L231.459,185.966ZM160.758,181.495C171.826,186.775 209.769,204.871 209.769,204.871L222.9,189.182L164.321,180.018C163.187,179.841 162.038,180.216 161.226,181.027L160.758,181.495Z" style="fill:rgb(0,5,6);"/>
                </g>
                <g transform="matrix(4.16667,0,0,4.16667,10160.1,-485.422)">
                    <path d="M273.709,284.266L263.405,218.396L239.067,238.763L265.153,293.457C265.793,294.799 267.568,295.104 268.62,294.053L271.437,291.236C273.264,289.409 274.108,286.819 273.709,284.266Z" style="fill:rgb(98,203,230);fill-rule:nonzero;"/>
                    <path d="M273.709,284.266C274.108,286.819 273.264,289.409 271.437,291.236L268.62,294.053C267.568,295.104 265.793,294.799 265.153,293.457L239.067,238.763L263.405,218.396L273.709,284.266ZM267.786,288.523L268.255,288.054C269.066,287.243 269.44,286.094 269.263,284.961L260.189,226.955L244.631,239.975L267.786,288.523Z" style="fill:rgb(0,5,6);"/>
                </g>
            </g>
        </g>
    </g>
</svg>
