<?xml version="1.0" encoding="UTF-8" standalone="no"?>
<!DOCTYPE svg PUBLIC "-//W3C//DTD SVG 1.1//EN" "http://www.w3.org/Graphics/SVG/1.1/DTD/svg11.dtd">
<svg width="100%" height="100%" viewBox="0 0 795 781" version="1.1" xmlns="http://www.w3.org/2000/svg" xmlns:xlink="http://www.w3.org/1999/xlink" xml:space="preserve" xmlns:serif="http://www.serif.com/" style="fill-rule:evenodd;clip-rule:evenodd;stroke-linejoin:round;stroke-miterlimit:2;">
    <g transform="matrix(1,0,0,1,-2888.74,-1034.5)">
        <g transform="matrix(0.500208,0,0,0.500208,1932.26,1054.57)">
            <path d="M2629.72,2.751C2621.22,-2.374 2617.17,-12.541 2619.83,-22.108C2622.49,-31.674 2631.2,-38.294 2641.14,-38.294C2828.81,-38.315 3237.65,-38.315 3415.71,-38.315C3438.45,-38.315 3460.26,-29.282 3476.34,-13.202C3492.42,2.877 3501.45,24.685 3501.45,47.425C3501.45,120.997 3501.45,228.139 3501.45,312.205C3501.45,383.851 3443.37,441.931 3371.72,441.931C3319.26,441.931 3270.83,441.931 3270.83,441.931C3257.25,441.931 3246.23,452.945 3246.23,466.531L3246.23,1509.65L2892.37,1509.65L2892.37,466.531C2892.45,455.164 2888.46,448.76 2883.29,445.225C2870.09,436.229 2862.18,421.295 2862.15,405.318C2861.95,227.18 2761.86,82.513 2629.72,2.751Z" style="fill:rgb(248,232,130);fill-rule:nonzero;"/>
        </g>
        <g transform="matrix(0.500208,0,0,0.500208,1932.26,1054.57)">
            <path d="M2629.72,2.751C2621.22,-2.374 2617.17,-12.541 2619.83,-22.108C2622.49,-31.674 2631.2,-38.294 2641.14,-38.294C2828.81,-38.315 3237.65,-38.315 3415.71,-38.315C3438.45,-38.315 3460.26,-29.282 3476.34,-13.202C3492.42,2.877 3501.45,24.685 3501.45,47.425L3501.45,372.274C3501.45,410.744 3470.26,441.931 3431.79,441.931L3270.83,441.931C3257.25,441.931 3246.23,452.945 3246.23,466.531L3246.23,1509.65L2892.37,1509.65L2892.37,466.531C2892.45,455.164 2888.46,448.76 2883.29,445.225C2870.09,436.229 2862.18,421.295 2862.15,405.318C2861.95,227.18 2761.86,82.513 2629.72,2.751ZM2692.27,-0.592C2813.01,89.315 2899.67,232.838 2899.86,405.254C2899.86,408.782 2901.61,412.079 2904.52,414.065C2904.54,414.076 2904.56,414.088 2904.57,414.099C2917.62,423.019 2930.24,438.011 2930.08,466.647L2930.08,1471.94L3208.53,1471.94L3208.53,466.531C3208.53,432.12 3236.42,404.225 3270.83,404.225L3431.79,404.225C3449.44,404.225 3463.74,389.92 3463.74,372.274L3463.74,47.425C3463.74,34.686 3458.68,22.468 3449.67,13.46C3440.67,4.452 3428.45,-0.609 3415.71,-0.609C3252.46,-0.609 2895.2,-0.609 2692.27,-0.592Z" style="fill:rgb(35,31,32);"/>
        </g>
        <g transform="matrix(0.536955,0,0,0.536955,2539.81,885.158)">
            <circle cx="1360.77" cy="921.019" r="53.547" style="fill:rgb(255,201,6);"/>
        </g>
        <g transform="matrix(0.536955,0,0,0.536955,2539.81,885.158)">
            <path d="M1360.77,849.764C1400.1,849.764 1432.03,881.693 1432.03,921.019C1432.03,960.346 1400.1,992.275 1360.77,992.275C1321.44,992.275 1289.52,960.346 1289.52,921.019C1289.52,881.693 1321.44,849.764 1360.77,849.764ZM1360.77,885.181C1340.99,885.181 1324.93,901.24 1324.93,921.019C1324.93,940.799 1340.99,956.858 1360.77,956.858C1380.55,956.858 1396.61,940.799 1396.61,921.019C1396.61,901.24 1380.55,885.181 1360.77,885.181Z" style="fill:rgb(35,31,32);"/>
        </g>
        <g transform="matrix(0.536955,0,0,0.536955,2238.8,885.158)">
            <circle cx="1360.77" cy="921.019" r="53.547" style="fill:rgb(255,201,6);"/>
        </g>
        <g transform="matrix(0.536955,0,0,0.536955,2238.8,885.158)">
            <path d="M1360.77,849.764C1400.1,849.764 1432.03,881.693 1432.03,921.019C1432.03,960.346 1400.1,992.275 1360.77,992.275C1321.44,992.275 1289.52,960.346 1289.52,921.019C1289.52,881.693 1321.44,849.764 1360.77,849.764ZM1360.77,885.181C1340.99,885.181 1324.93,901.24 1324.93,921.019C1324.93,940.799 1340.99,956.858 1360.77,956.858C1380.55,956.858 1396.61,940.799 1396.61,921.019C1396.61,901.24 1380.55,885.181 1360.77,885.181Z" style="fill:rgb(35,31,32);"/>
        </g>
        <g transform="matrix(0.902038,0,0,0.902038,2140.42,368.567)">
            <path d="M840.126,994.475C840.126,858.879 950.213,748.792 1085.81,748.792C1221.4,748.792 1331.49,858.879 1331.49,994.475L840.126,994.475Z" style="fill:rgb(255,201,6);"/>
        </g>
        <g transform="matrix(0.902038,0,0,0.902038,2140.42,368.567)">
            <path d="M829.585,994.475C829.585,853.061 944.395,738.251 1085.81,738.251C1227.22,738.251 1342.03,853.061 1342.03,994.475C1342.03,1000.3 1337.31,1005.02 1331.49,1005.02L840.126,1005.02C834.305,1005.02 829.585,1000.3 829.585,994.475ZM850.9,983.934L1320.72,983.934C1315.2,859.039 1212.06,759.333 1085.81,759.333C959.563,759.333 856.421,859.039 850.9,983.934Z" style="fill:rgb(35,31,32);"/>
        </g>
        <g transform="matrix(0.536955,0,0,0.536955,2549.86,885.456)">
            <path d="M887.586,1493.14L815.86,708.001C815.86,572.405 925.947,462.319 1061.54,462.319C1197.14,462.319 1307.23,572.405 1307.23,708.001L1235.6,1492.01L1088.38,1386.82C1088.38,1386.82 1090.5,1291.31 1087.73,1267.9C1085.95,1259.1 1079.13,1223.33 1060.74,1222.28C1060.67,1222.28 1060.6,1222.28 1060.53,1222.28C1060.46,1222.28 1060.39,1222.28 1060.32,1222.28C1041.94,1223.46 1035.38,1259.28 1033.66,1268.1C1031.06,1291.53 1033.88,1387.02 1033.88,1387.02L887.586,1493.14Z" style="fill:rgb(248,232,130);"/>
        </g>
        <g transform="matrix(0.536955,0,0,0.536955,2549.86,885.456)">
            <path d="M887.586,1493.14L815.86,708.001C815.86,572.405 925.947,462.319 1061.54,462.319C1197.14,462.319 1307.23,572.405 1307.23,708.001L1235.6,1492.01L1088.38,1386.82C1088.38,1386.82 1090.5,1291.31 1087.73,1267.9C1085.95,1259.1 1079.13,1223.33 1060.74,1222.28C1060.67,1222.28 1060.6,1222.28 1060.53,1222.28C1060.46,1222.28 1060.39,1222.28 1060.32,1222.28C1041.94,1223.46 1035.38,1259.28 1033.66,1268.1C1031.06,1291.53 1033.88,1387.02 1033.88,1387.02L887.586,1493.14ZM1059.04,1186.89C1059.72,1186.86 1060.41,1186.85 1061.1,1186.86C1061.35,1186.87 1061.6,1186.87 1061.85,1186.88C1062.08,1186.89 1062.31,1186.9 1062.49,1186.91C1062.58,1186.91 1062.66,1186.92 1062.75,1186.92C1078.57,1187.82 1092.5,1195.87 1102.86,1209.92C1114.56,1225.8 1120.72,1252.34 1122.45,1260.9C1122.64,1261.84 1122.79,1262.79 1122.9,1263.74C1125,1281.45 1124.51,1338.76 1124.09,1368.81C1124.09,1368.81 1205.95,1427.3 1205.95,1427.3C1205.95,1427.3 1271.8,706.449 1271.8,706.439C1270.96,591.108 1177.07,497.735 1061.54,497.735C946.013,497.735 852.12,591.112 851.283,706.449L917.191,1427.91C917.191,1427.91 998.032,1369.27 998.032,1369.27C997.393,1339.21 996.495,1281.91 998.463,1264.19C998.569,1263.24 998.714,1262.29 998.897,1261.34C1000.56,1252.77 1006.53,1226.19 1018.12,1210.22C1028.37,1196.11 1042.24,1187.95 1058.06,1186.94C1058.19,1186.93 1058.32,1186.92 1058.45,1186.91C1058.61,1186.91 1058.82,1186.9 1059.04,1186.89Z" style="fill:rgb(35,31,32);"/>
        </g>
        <g transform="matrix(0.536955,0,0,0.536955,1960.97,667.601)">
            <path d="M2331.11,1910.95L2325.74,1969.77C2325.74,2062.2 2250.69,2137.25 2158.26,2137.25C2065.82,2137.25 1990.78,2062.2 1990.78,1969.77L1985.52,1912.16L2130.03,1844.2C2130.03,1844.2 2133.91,1891.66 2136.74,1916.01C2139.57,1940.36 2148.86,1996.67 2148.86,1996.67L2102.7,2037.64L2105.74,2040.23L2158.66,2018.73L2206.03,2040.23L2209.05,2037.64L2168.3,1996.6C2168.3,1996.6 2177.18,1940.22 2179.84,1915.85C2182.49,1891.48 2186.03,1844 2186.03,1844L2331.11,1910.95Z" style="fill:rgb(244,123,32);"/>
        </g>
        <g transform="matrix(0.536955,0,0,0.536955,1960.97,667.601)">
            <path d="M2331.11,1910.95L2325.74,1969.77C2325.74,2062.2 2250.69,2137.25 2158.26,2137.25C2065.82,2137.25 1990.78,2062.2 1990.78,1969.77L1985.52,1912.16L2130.03,1844.2C2130.03,1844.2 2133.91,1891.66 2136.74,1916.01C2139.57,1940.36 2148.86,1996.67 2148.86,1996.67L2102.7,2037.64L2105.74,2040.23L2158.66,2018.73L2206.03,2040.23L2209.05,2037.64L2168.3,1996.6C2168.3,1996.6 2177.18,1940.22 2179.84,1915.85C2182.49,1891.48 2186.03,1844 2186.03,1844L2331.11,1910.95ZM2206.03,1984.33L2234.18,2012.68C2241.11,2019.66 2244.83,2029.21 2244.44,2039.04C2244.05,2048.87 2239.59,2058.09 2232.13,2064.5L2229.12,2067.09C2218.66,2076.08 2203.94,2078.18 2191.39,2072.48L2157.89,2057.27L2119.08,2073.04C2106.82,2078.02 2092.81,2075.76 2082.75,2067.17L2079.71,2064.57C2071.92,2057.92 2067.39,2048.22 2067.29,2037.98C2067.19,2027.74 2071.53,2017.95 2079.2,2011.15C2079.2,2011.15 2110.8,1983.1 2110.8,1983.1C2107.77,1964.08 2103.38,1935.68 2101.56,1920.1C2100.83,1913.8 2100.03,1905.98 2099.24,1897.82L2023.04,1933.65L2026.05,1966.54C2026.15,1967.62 2026.2,1968.69 2026.2,1969.77C2026.2,2042.65 2085.37,2101.83 2158.26,2101.83C2231.15,2101.83 2290.32,2042.65 2290.32,1969.77C2290.32,1968.69 2290.37,1967.62 2290.47,1966.54L2293.57,1932.63C2293.57,1932.63 2217.21,1897.39 2217.21,1897.39C2216.48,1905.56 2215.73,1913.39 2215.04,1919.69C2213.3,1935.72 2208.92,1965.31 2206.03,1984.33Z" style="fill:white;"/>
        </g>
        <g transform="matrix(0.536955,0,0,0.536955,2549.86,885.456)">
            <path d="M835.299,920.781L815.86,708.001L815.86,707.981L1307.23,707.981L1307.23,708.001L1287.79,920.781L835.299,920.781Z" style="fill:rgb(251,173,23);"/>
        </g>
        <g transform="matrix(0.536955,0,0,0.536955,2549.86,885.456)">
            <path d="M815.86,708.001L815.86,707.981L1307.23,707.981L1307.23,708.001L1287.79,920.781L835.299,920.781L815.86,708.001ZM854.658,743.398L867.627,885.365L1255.46,885.365L1268.43,743.398L854.658,743.398Z" style="fill:none;"/>
        </g>
        <g transform="matrix(0.536955,0,0,0.536955,2549.86,885.456)">
            <path d="M1234.4,1505.22L1229.02,1564.04C1229.02,1656.48 1153.98,1731.52 1061.54,1731.52C969.108,1731.52 894.063,1656.48 894.063,1564.04L888.8,1506.43L1033.31,1438.48C1033.31,1438.48 1037.19,1485.93 1040.03,1510.28C1042.86,1534.63 1052.15,1590.94 1052.15,1590.94L1005.99,1631.91L1009.03,1634.51L1061.94,1613.01L1109.32,1634.51L1112.33,1631.91L1071.58,1590.88C1071.58,1590.88 1080.46,1534.5 1083.12,1510.13C1085.78,1485.76 1089.31,1438.27 1089.31,1438.27L1234.4,1505.22ZM1109.31,1578.61L1137.46,1606.96C1144.39,1613.94 1148.11,1623.49 1147.72,1633.31C1147.34,1643.14 1142.88,1652.37 1135.42,1658.78L1132.4,1661.37C1121.94,1670.35 1107.23,1672.46 1094.68,1666.76L1061.17,1651.55L1022.36,1667.32C1010.1,1672.3 996.092,1670.04 986.031,1661.44L982.993,1658.85C975.202,1652.2 970.672,1642.5 970.574,1632.26C970.475,1622.01 974.817,1612.23 982.478,1605.43C982.478,1605.43 1014.08,1577.38 1014.08,1577.38C1011.05,1558.35 1006.66,1529.96 1004.85,1514.38C1004.11,1508.08 1003.31,1500.26 1002.52,1492.09L926.328,1527.92L929.333,1560.82C929.431,1561.89 929.48,1562.97 929.48,1564.04C929.48,1636.93 988.655,1696.11 1061.54,1696.11C1134.43,1696.11 1193.61,1636.93 1193.61,1564.04C1193.61,1562.97 1193.65,1561.89 1193.75,1560.82L1196.85,1526.9C1196.85,1526.9 1120.49,1491.67 1120.49,1491.67C1119.76,1499.83 1119.02,1507.66 1118.33,1513.97C1116.58,1530 1112.2,1559.59 1109.31,1578.61ZM887.586,1493.14L815.86,708.001C815.86,572.405 925.947,462.319 1061.54,462.319C1197.14,462.319 1307.23,572.405 1307.23,708.001L1235.6,1492.01L1088.38,1386.82C1088.38,1386.82 1090.5,1291.31 1087.73,1267.9C1085.95,1259.1 1079.13,1223.33 1060.74,1222.28C1060.67,1222.28 1060.6,1222.28 1060.53,1222.28C1060.46,1222.28 1060.39,1222.28 1060.32,1222.28C1041.94,1223.46 1035.38,1259.28 1033.66,1268.1C1031.06,1291.53 1033.88,1387.02 1033.88,1387.02L887.586,1493.14ZM1059.04,1186.89C1059.72,1186.86 1060.41,1186.85 1061.1,1186.86C1061.35,1186.87 1061.6,1186.87 1061.85,1186.88C1062.08,1186.89 1062.31,1186.9 1062.49,1186.91C1062.58,1186.91 1062.66,1186.92 1062.75,1186.92C1078.57,1187.82 1092.5,1195.87 1102.86,1209.92C1114.56,1225.8 1120.72,1252.34 1122.45,1260.9C1122.64,1261.84 1122.79,1262.79 1122.9,1263.74C1125,1281.45 1124.51,1338.76 1124.09,1368.81C1124.09,1368.81 1205.95,1427.3 1205.95,1427.3C1205.95,1427.3 1271.8,706.449 1271.8,706.439C1270.96,591.108 1177.07,497.735 1061.54,497.735C946.013,497.735 852.12,591.112 851.283,706.449L917.191,1427.91C917.191,1427.91 998.032,1369.27 998.032,1369.27C997.393,1339.21 996.495,1281.91 998.463,1264.19C998.569,1263.24 998.714,1262.29 998.897,1261.34C1000.56,1252.77 1006.53,1226.19 1018.12,1210.22C1028.37,1196.11 1042.24,1187.95 1058.06,1186.94C1058.19,1186.93 1058.32,1186.92 1058.45,1186.91C1058.61,1186.91 1058.82,1186.9 1059.04,1186.89Z" style="fill:rgb(35,31,32);"/>
        </g>
        <g transform="matrix(0.536955,0,0,0.536955,2549.86,885.456)">
            <path d="M648.817,725.71C639.044,725.71 631.109,717.775 631.109,708.001C631.109,698.228 639.044,690.293 648.817,690.293L1474.27,690.293C1484.04,690.293 1491.98,698.228 1491.98,708.001C1491.98,717.775 1484.04,725.71 1474.27,725.71L648.817,725.71Z" style="fill:rgb(35,31,32);"/>
        </g>
        <g transform="matrix(0.536955,0,0,0.536955,2549.86,885.456)">
            <path d="M1043.84,295.276C1043.84,285.502 1051.77,277.567 1061.54,277.567C1071.32,277.567 1079.25,285.502 1079.25,295.276L1079.25,462.319C1079.25,472.092 1071.32,480.027 1061.54,480.027C1051.77,480.027 1043.84,472.092 1043.84,462.319L1043.84,295.276Z" style="fill:rgb(35,31,32);"/>
        </g>
        <g transform="matrix(0.379684,-0.379684,0.379684,0.379684,2447.99,1399.86)">
            <path d="M1043.84,295.276C1043.84,285.502 1051.77,277.567 1061.54,277.567C1071.32,277.567 1079.25,285.502 1079.25,295.276L1079.25,462.319C1079.25,472.092 1071.32,480.027 1061.54,480.027C1051.77,480.027 1043.84,472.092 1043.84,462.319L1043.84,295.276Z" style="fill:rgb(35,31,32);"/>
        </g>
        <g transform="matrix(0.379684,0.379684,-0.379684,0.379684,2985.63,593.753)">
            <path d="M1043.84,295.276C1043.84,285.502 1051.77,277.567 1061.54,277.567C1071.32,277.567 1079.25,285.502 1079.25,295.276L1079.25,462.319C1079.25,472.092 1071.32,480.027 1061.54,480.027C1051.77,480.027 1043.84,472.092 1043.84,462.319L1043.84,295.276Z" style="fill:rgb(35,31,32);"/>
        </g>
        <g transform="matrix(0.536955,0,0,0.536955,2549.86,885.456)">
            <path d="M1043.84,708.001C1043.84,698.228 1051.77,690.293 1061.54,690.293C1071.32,690.293 1079.25,698.228 1079.25,708.001L1079.25,984.684C1079.25,994.458 1071.32,1002.39 1061.54,1002.39C1051.77,1002.39 1043.84,994.458 1043.84,984.684L1043.84,708.001Z" style="fill:rgb(35,31,32);"/>
        </g>
        <g transform="matrix(0.536955,0,0,0.536955,2544.49,885.456)">
            <path d="M1285.16,803.553C1294.94,803.553 1302.87,811.488 1302.87,821.261C1302.87,831.035 1294.94,838.969 1285.16,838.969L1163.26,838.969C1153.48,838.969 1145.55,831.035 1145.55,821.261C1145.55,811.488 1153.48,803.553 1163.26,803.553L1285.16,803.553Z" style="fill:rgb(35,31,32);"/>
        </g>
        <g transform="matrix(0.536955,0,0,0.536955,2373.61,885.456)">
            <path d="M1295.16,803.553C1304.94,803.553 1312.87,811.488 1312.87,821.261C1312.87,831.035 1304.94,838.969 1295.16,838.969L1173.26,838.969C1163.48,838.969 1155.55,831.035 1155.55,821.261C1155.55,811.488 1163.48,803.553 1173.26,803.553L1295.16,803.553Z" style="fill:rgb(35,31,32);"/>
        </g>
        <g transform="matrix(0.536955,0,0,0.536955,2549.86,885.456)">
            <path d="M1285.16,902.756C1294.94,902.756 1302.87,910.691 1302.87,920.464C1302.87,930.238 1294.94,938.173 1285.16,938.173L835.02,938.173C825.247,938.173 817.312,930.238 817.312,920.464C817.312,910.691 825.247,902.756 835.02,902.756L1285.16,902.756Z" style="fill:rgb(35,31,32);"/>
        </g>
        <g transform="matrix(0.536955,0,0,0.536955,2537.55,885.679)">
            <path d="M1005.7,1060.07C995.923,1060.07 987.988,1052.14 987.988,1042.37C987.988,1032.59 995.923,1024.66 1005.7,1024.66L1163.26,1024.66C1173.03,1024.66 1180.96,1032.59 1180.96,1042.37C1180.96,1052.14 1173.03,1060.07 1163.26,1060.07L1005.7,1060.07Z" style="fill:rgb(35,31,32);"/>
        </g>
        <g transform="matrix(0.536955,0,0,0.536955,1960.97,674.409)">
            <path d="M2640.95,1288.41C2660.41,1264.13 2675.95,1238.56 2685,1207.71C2729.2,1057.07 2685.32,1098.07 2705.37,947.326C2717.73,854.41 2768.61,853.754 2813.49,779.768C2827.1,757.332 2833.9,698.452 2839.45,672.303L3061.56,672.303C3100.49,672.303 3137.82,687.768 3165.35,715.296C3192.88,742.824 3208.34,780.16 3208.34,819.09L3208.34,998.835C3208.34,1030.89 3195.61,1061.62 3172.95,1084.29C3150.28,1106.95 3119.55,1119.68 3087.49,1119.68C3038.62,1119.68 2993.51,1119.68 2993.51,1119.68C2980.85,1119.68 2970.59,1129.94 2970.59,1142.6L2970.59,2114.33C2970.59,2114.33 2640.95,2114.33 2640.95,2114.33L2640.95,1288.41Z" style="fill:rgb(255,201,0);"/>
        </g>
        <g transform="matrix(0.536955,0,0,0.536955,1960.97,674.409)">
            <path d="M2640.95,1288.41C2660.41,1264.13 2675.95,1238.56 2685,1207.71C2729.2,1057.07 2685.32,1098.07 2705.37,947.326C2717.73,854.41 2768.61,853.754 2813.49,779.768C2827.1,757.332 2833.9,698.452 2839.45,672.303L3129.52,672.303C3173.05,672.303 3208.34,707.591 3208.34,751.121L3208.34,1054.79C3208.34,1072 3201.51,1088.51 3189.34,1100.68C3177.17,1112.85 3160.66,1119.68 3143.45,1119.68L2993.51,1119.68C2980.85,1119.68 2970.59,1129.94 2970.59,1142.6L2970.59,2114.33C2970.59,2114.33 2640.95,2114.33 2640.95,2114.33L2640.95,1288.41ZM2935.18,2078.91L2935.18,1142.6C2935.18,1110.38 2961.29,1084.27 2993.51,1084.27L3143.45,1084.27C3151.27,1084.27 3158.76,1081.16 3164.29,1075.63C3169.82,1070.11 3172.93,1062.61 3172.93,1054.79L3172.93,751.121C3172.93,727.151 3153.49,707.72 3129.52,707.72L2868.73,707.72C2862.88,739.177 2854.96,779.685 2843.77,798.135C2823.94,830.835 2803.24,850.732 2784.43,869.213C2763.93,889.357 2746.43,907.236 2740.48,951.996C2731.1,1022.48 2736.71,1048.14 2739.46,1073.78C2742.71,1104.08 2743.4,1134.47 2718.99,1217.68C2709.82,1248.92 2695.04,1275.54 2676.37,1300.52L2676.37,2078.91L2935.18,2078.91Z"/>
        </g>
        <g transform="matrix(0.536955,0,0,0.536955,1960.97,674.409)">
            <path d="M2640.95,1631.55C2663.66,1616.1 2686.26,1600.24 2700.03,1561.83C2722.37,1499.53 2683.2,1426.72 2729.04,1370.31C2766.7,1323.96 2830.73,1311.11 2846.41,1251.56C2883.23,1111.77 2839.03,1033.56 2924.64,963.731C2971.2,925.76 3017.73,933.655 3111.4,897.837C3180.42,871.443 3183.42,775.996 3208.34,764.255C3208.34,764.255 3208.34,895.799 3208.34,998.835C3208.34,1065.58 3154.24,1119.68 3087.49,1119.68C3038.62,1119.68 2993.51,1119.68 2993.51,1119.68C2980.85,1119.68 2970.59,1129.94 2970.59,1142.6L2970.59,2114.33C2970.59,2114.33 2640.95,2114.33 2640.95,2114.33L2640.95,1631.55Z" style="fill:rgb(99,203,230);"/>
        </g>
        <g transform="matrix(0.536955,0,0,0.536955,1960.97,674.409)">
            <path d="M2640.95,1631.55C2663.66,1616.1 2686.26,1600.24 2700.03,1561.83C2722.37,1499.53 2683.2,1426.72 2729.04,1370.31C2766.7,1323.96 2830.73,1311.11 2846.41,1251.56C2883.23,1111.77 2839.03,1033.56 2924.64,963.731C2971.2,925.76 3017.73,933.655 3111.4,897.837C3180.42,871.443 3183.42,775.996 3208.34,764.255L3208.34,1054.79C3208.34,1090.63 3179.29,1119.68 3143.45,1119.68L2993.51,1119.68C2980.85,1119.68 2970.59,1129.94 2970.59,1142.6L2970.59,2114.33C2970.59,2114.33 2640.95,2114.33 2640.95,2114.33L2640.95,1631.55ZM2935.18,2078.91L2935.18,1142.6C2935.18,1110.38 2961.29,1084.27 2993.51,1084.27L3143.45,1084.27C3159.73,1084.27 3172.93,1071.07 3172.93,1054.79L3172.93,897.373C3159.95,911.445 3143.99,923.29 3124.05,930.918C3075.47,949.493 3039.14,956.827 3008.9,964.347C2985.18,970.245 2965.97,975.731 2947.03,991.177C2913.17,1018.8 2905.86,1048.5 2902.49,1084.69C2898.1,1132 2899.7,1188.31 2880.66,1260.58C2870.54,1299.02 2846.03,1323.32 2816.76,1344.55C2796.5,1359.25 2773.35,1371.93 2756.53,1392.64C2735.01,1419.12 2740.45,1450.75 2742.06,1481.92C2743.67,1513.19 2743.89,1544.44 2733.37,1573.79C2719.46,1612.58 2698.78,1633.23 2676.37,1649.9L2676.37,2078.91L2935.18,2078.91Z"/>
        </g>
        <g transform="matrix(0.536955,0,0,0.536955,1960.97,674.409)">
            <path d="M2640.95,1892.6C2660.07,1876.35 2683.71,1865.74 2697.47,1843.58C2718.26,1810.09 2716.5,1765.6 2749.53,1739.26C2785.24,1710.77 2842.76,1714.86 2869.45,1674.38C2882.5,1654.61 2886.4,1630.49 2889.43,1607.5C2898.24,1540.75 2908.84,1495.34 2970.59,1465.89L2970.59,2114.33C2970.59,2114.33 2640.95,2114.33 2640.95,2114.33L2640.95,1892.6Z" style="fill:rgb(255,150,0);"/>
        </g>
        <g transform="matrix(0.536955,0,0,0.536955,1960.97,674.409)">
            <path d="M2640.95,1892.6C2660.07,1876.35 2683.71,1865.74 2697.47,1843.58C2718.26,1810.09 2716.5,1765.6 2749.53,1739.26C2785.24,1710.77 2842.76,1714.86 2869.45,1674.38C2882.5,1654.61 2886.4,1630.49 2889.43,1607.5C2898.24,1540.75 2908.84,1495.34 2970.59,1465.89L2970.59,2114.33C2970.59,2114.33 2640.95,2114.33 2640.95,2114.33L2640.95,1892.6ZM2935.18,2078.91C2935.18,1955.99 2935.18,1555.23 2935.18,1555.23C2929.91,1571.75 2927.37,1590.7 2924.54,1612.13C2920.82,1640.34 2915.02,1669.62 2899.02,1693.88C2884.16,1716.42 2863.04,1729.83 2839.14,1739.39C2816.55,1748.42 2790.4,1751.96 2771.61,1766.94C2757.62,1778.1 2754.08,1794.74 2749.03,1810.68C2743.37,1828.54 2737.42,1846.37 2727.56,1862.26C2714.72,1882.94 2695.05,1895.63 2676.37,1909.69L2676.37,2078.91L2935.18,2078.91Z"/>
        </g>
        <g transform="matrix(0.536955,0,0,0.536955,1960.97,674.409)">
            <path d="M2640.95,2095.75C2666.14,2071.91 2702.01,2064.2 2739,2032.38C2773.97,2002.29 2778.15,1956.55 2808.56,1924.69C2835.02,1896.96 2873.41,1894.5 2905.41,1876.65C2934.84,1860.23 2951.79,1832.25 2970.59,1805.75L2970.59,2114.33C2970.59,2114.33 2640.95,2114.33 2640.95,2114.33L2640.95,2095.75Z" style="fill:rgb(244,123,32);"/>
        </g>
        <g transform="matrix(0.536955,0,0,0.536955,1960.97,674.409)">
            <path d="M2640.95,2095.75C2666.14,2071.91 2702.01,2064.2 2739,2032.38C2773.97,2002.29 2778.15,1956.55 2808.56,1924.69C2835.02,1896.96 2873.41,1894.5 2905.41,1876.65C2934.84,1860.23 2951.79,1832.25 2970.59,1805.75L2970.59,2114.33C2970.59,2114.33 2640.95,2114.33 2640.95,2114.33L2640.95,2095.75ZM2935.18,2078.91C2935.18,2017.95 2935.18,1899.66 2935.18,1899.66C2931.2,1902.49 2927.05,1905.13 2922.66,1907.58C2908.1,1915.7 2892.45,1921.2 2876.89,1926.69C2861.59,1932.08 2846.02,1936.74 2834.18,1949.15C2821.61,1962.31 2815.03,1978.69 2807.41,1994.54C2796.13,2018.03 2783.51,2040.81 2762.09,2059.23C2753.23,2066.86 2744.44,2073.28 2735.81,2078.91L2935.18,2078.91Z"/>
        </g>
    </g>
</svg>
