<?xml version="1.0" encoding="UTF-8" standalone="no"?>
<!DOCTYPE svg PUBLIC "-//W3C//DTD SVG 1.1//EN" "http://www.w3.org/Graphics/SVG/1.1/DTD/svg11.dtd">
<svg width="100%" height="100%" viewBox="0 0 3225 775" version="1.1" xmlns="http://www.w3.org/2000/svg" xmlns:xlink="http://www.w3.org/1999/xlink" xml:space="preserve" xmlns:serif="http://www.serif.com/" style="fill-rule:evenodd;clip-rule:evenodd;stroke-linejoin:round;stroke-miterlimit:2;">
    <g transform="matrix(1,0,0,1,-11494.9,-1644.76)">
        <g transform="matrix(1,0,0,1,-0.333333,0)">
            <g transform="matrix(0.500208,0,0,0.500208,12968.6,1663.92)">
                <path d="M2629.72,2.751C2621.22,-2.374 2617.17,-12.541 2619.83,-22.108C2622.49,-31.674 2631.2,-38.294 2641.14,-38.294C2828.81,-38.315 3237.65,-38.315 3415.71,-38.315C3438.45,-38.315 3460.26,-29.282 3476.34,-13.202C3492.42,2.877 3501.45,24.685 3501.45,47.425C3501.45,120.997 3501.45,228.139 3501.45,312.205C3501.45,383.851 3443.37,441.931 3371.72,441.931C3319.26,441.931 3270.83,441.931 3270.83,441.931C3257.25,441.931 3246.23,452.945 3246.23,466.531L3246.23,1509.65L2892.37,1509.65L2892.37,466.531C2892.45,455.164 2888.46,448.76 2883.29,445.225C2870.09,436.229 2862.18,421.295 2862.15,405.318C2861.95,227.18 2761.86,82.513 2629.72,2.751Z" style="fill:rgb(248,232,130);fill-rule:nonzero;"/>
            </g>
            <g transform="matrix(0.500208,0,0,0.500208,12968.6,1663.92)">
                <path d="M2629.72,2.751C2621.22,-2.374 2617.17,-12.541 2619.83,-22.108C2622.49,-31.674 2631.2,-38.294 2641.14,-38.294C2828.81,-38.315 3237.65,-38.315 3415.71,-38.315C3438.45,-38.315 3460.26,-29.282 3476.34,-13.202C3492.42,2.877 3501.45,24.685 3501.45,47.425L3501.45,372.274C3501.45,410.744 3470.26,441.931 3431.79,441.931L3270.83,441.931C3257.25,441.931 3246.23,452.945 3246.23,466.531L3246.23,1509.65L2892.37,1509.65L2892.37,466.531C2892.45,455.164 2888.46,448.76 2883.29,445.225C2870.09,436.229 2862.18,421.295 2862.15,405.318C2861.95,227.18 2761.86,82.513 2629.72,2.751ZM2692.27,-0.592C2813.01,89.315 2899.67,232.838 2899.86,405.254C2899.86,408.782 2901.61,412.079 2904.52,414.065C2904.54,414.076 2904.56,414.088 2904.57,414.099C2917.62,423.019 2930.24,438.011 2930.08,466.647L2930.08,1471.94L3208.53,1471.94L3208.53,466.531C3208.53,432.12 3236.42,404.225 3270.83,404.225L3431.79,404.225C3449.44,404.225 3463.74,389.92 3463.74,372.274L3463.74,47.425C3463.74,34.686 3458.68,22.468 3449.67,13.46C3440.67,4.452 3428.45,-0.609 3415.71,-0.609C3252.46,-0.609 2895.2,-0.609 2692.27,-0.592Z" style="fill:rgb(35,31,32);"/>
            </g>
            <g transform="matrix(0.536955,0,0,0.536955,12997.3,1283.76)">
                <path d="M2640.95,1288.41C2660.41,1264.13 2675.95,1238.56 2685,1207.71C2729.2,1057.07 2685.32,1098.07 2705.37,947.326C2717.73,854.41 2768.61,853.754 2813.49,779.768C2827.1,757.332 2833.9,698.452 2839.45,672.303C2839.45,672.303 2958.67,672.303 3061.56,672.303C3100.49,672.303 3137.82,687.768 3165.35,715.296C3192.88,742.824 3208.34,780.16 3208.34,819.09C3208.34,877.313 3208.34,943.45 3208.34,998.835C3208.34,1030.89 3195.61,1061.62 3172.95,1084.29C3150.28,1106.95 3119.55,1119.68 3087.49,1119.68C3038.62,1119.68 2993.51,1119.68 2993.51,1119.68C2980.85,1119.68 2970.59,1129.94 2970.59,1142.6L2970.59,2114.33C2970.59,2114.33 2640.95,2114.33 2640.95,2114.33L2640.95,1288.41Z" style="fill:rgb(255,201,0);"/>
            </g>
            <g transform="matrix(0.536955,0,0,0.536955,12997.3,1283.76)">
                <path d="M2640.95,1288.41C2660.41,1264.13 2675.95,1238.56 2685,1207.71C2729.2,1057.07 2685.32,1098.07 2705.37,947.326C2717.73,854.41 2768.61,853.754 2813.49,779.768C2827.1,757.332 2833.9,698.452 2839.45,672.303L3129.52,672.303C3173.05,672.303 3208.34,707.591 3208.34,751.121L3208.34,1054.79C3208.34,1072 3201.51,1088.51 3189.34,1100.68C3177.17,1112.85 3160.66,1119.68 3143.45,1119.68L2993.51,1119.68C2980.85,1119.68 2970.59,1129.94 2970.59,1142.6L2970.59,2114.33C2970.59,2114.33 2640.95,2114.33 2640.95,2114.33L2640.95,1288.41ZM2935.18,2078.91L2935.18,1142.6C2935.18,1110.38 2961.29,1084.27 2993.51,1084.27L3143.45,1084.27C3151.27,1084.27 3158.76,1081.16 3164.29,1075.63C3169.82,1070.11 3172.93,1062.61 3172.93,1054.79L3172.93,751.121C3172.93,727.151 3153.49,707.72 3129.52,707.72L2868.73,707.72C2862.88,739.177 2854.96,779.685 2843.77,798.135C2823.94,830.835 2803.24,850.732 2784.43,869.213C2763.93,889.357 2746.43,907.236 2740.48,951.996C2731.1,1022.48 2736.71,1048.14 2739.46,1073.78C2742.71,1104.08 2743.4,1134.47 2718.99,1217.68C2709.82,1248.92 2695.04,1275.54 2676.37,1300.52L2676.37,2078.91L2935.18,2078.91Z"/>
            </g>
            <g transform="matrix(0.536955,0,0,0.536955,12997.3,1283.76)">
                <path d="M2640.95,1631.55C2663.66,1616.1 2686.26,1600.24 2700.03,1561.83C2722.37,1499.53 2683.2,1426.72 2729.04,1370.31C2766.7,1323.96 2830.73,1311.11 2846.41,1251.56C2883.23,1111.77 2839.03,1033.56 2924.64,963.731C2971.2,925.76 3017.73,933.655 3111.4,897.837C3180.42,871.443 3183.42,775.996 3208.34,764.255C3208.34,764.255 3208.34,895.799 3208.34,998.835C3208.34,1065.58 3154.24,1119.68 3087.49,1119.68C3038.62,1119.68 2993.51,1119.68 2993.51,1119.68C2980.85,1119.68 2970.59,1129.94 2970.59,1142.6L2970.59,2114.33C2970.59,2114.33 2640.95,2114.33 2640.95,2114.33L2640.95,1631.55Z" style="fill:rgb(98,203,230);"/>
            </g>
            <g transform="matrix(0.536955,0,0,0.536955,12997.3,1283.76)">
                <path d="M2640.95,1631.55C2663.66,1616.1 2686.26,1600.24 2700.03,1561.83C2722.37,1499.53 2683.2,1426.72 2729.04,1370.31C2766.7,1323.96 2830.73,1311.11 2846.41,1251.56C2883.23,1111.77 2839.03,1033.56 2924.64,963.731C2971.2,925.76 3017.73,933.655 3111.4,897.837C3180.42,871.443 3183.42,775.996 3208.34,764.255L3208.34,1054.79C3208.34,1090.63 3179.29,1119.68 3143.45,1119.68L2993.51,1119.68C2980.85,1119.68 2970.59,1129.94 2970.59,1142.6L2970.59,2114.33C2970.59,2114.33 2640.95,2114.33 2640.95,2114.33L2640.95,1631.55ZM2935.18,2078.91L2935.18,1142.6C2935.18,1110.38 2961.29,1084.27 2993.51,1084.27L3143.45,1084.27C3159.73,1084.27 3172.93,1071.07 3172.93,1054.79L3172.93,897.373C3159.95,911.445 3143.99,923.29 3124.05,930.918C3075.47,949.493 3039.14,956.827 3008.9,964.347C2985.18,970.245 2965.97,975.731 2947.03,991.177C2913.17,1018.8 2905.86,1048.5 2902.49,1084.69C2898.1,1132 2899.7,1188.31 2880.66,1260.58C2870.54,1299.02 2846.03,1323.32 2816.76,1344.55C2796.5,1359.25 2773.35,1371.93 2756.53,1392.64C2735.01,1419.12 2740.45,1450.75 2742.06,1481.92C2743.67,1513.19 2743.89,1544.44 2733.37,1573.79C2719.46,1612.58 2698.78,1633.23 2676.37,1649.9L2676.37,2078.91L2935.18,2078.91Z"/>
            </g>
            <g transform="matrix(0.536955,0,0,0.536955,12997.3,1283.76)">
                <path d="M2640.95,1892.6C2660.07,1876.35 2683.71,1865.74 2697.47,1843.58C2718.26,1810.09 2716.5,1765.6 2749.53,1739.26C2785.24,1710.77 2842.76,1714.86 2869.45,1674.38C2882.5,1654.61 2886.4,1630.49 2889.43,1607.5C2898.24,1540.75 2908.84,1495.34 2970.59,1465.89L2970.59,2114.33C2970.59,2114.33 2640.95,2114.33 2640.95,2114.33L2640.95,1892.6Z" style="fill:rgb(255,150,0);"/>
            </g>
            <g transform="matrix(0.536955,0,0,0.536955,12997.3,1283.76)">
                <path d="M2640.95,1892.6C2660.07,1876.35 2683.71,1865.74 2697.47,1843.58C2718.26,1810.09 2716.5,1765.6 2749.53,1739.26C2785.24,1710.77 2842.76,1714.86 2869.45,1674.38C2882.5,1654.61 2886.4,1630.49 2889.43,1607.5C2898.24,1540.75 2908.84,1495.34 2970.59,1465.89L2970.59,2114.33C2970.59,2114.33 2640.95,2114.33 2640.95,2114.33L2640.95,1892.6ZM2935.18,2078.91C2935.18,1955.99 2935.18,1555.23 2935.18,1555.23C2929.91,1571.75 2927.37,1590.7 2924.54,1612.13C2920.82,1640.34 2915.02,1669.62 2899.02,1693.88C2884.16,1716.42 2863.04,1729.83 2839.14,1739.39C2816.55,1748.42 2790.4,1751.96 2771.61,1766.94C2757.62,1778.1 2754.08,1794.74 2749.03,1810.68C2743.37,1828.54 2737.42,1846.37 2727.56,1862.26C2714.72,1882.94 2695.05,1895.63 2676.37,1909.69L2676.37,2078.91L2935.18,2078.91Z"/>
            </g>
            <g transform="matrix(0.536955,0,0,0.536955,12997.3,1283.76)">
                <path d="M2640.95,2095.75C2666.14,2071.91 2702.01,2064.2 2739,2032.38C2773.97,2002.29 2778.15,1956.55 2808.56,1924.69C2835.02,1896.96 2873.41,1894.5 2905.41,1876.65C2934.84,1860.23 2951.79,1832.25 2970.59,1805.75L2970.59,2114.33C2970.59,2114.33 2640.95,2114.33 2640.95,2114.33L2640.95,2095.75Z" style="fill:rgb(244,123,32);"/>
            </g>
            <g transform="matrix(0.536955,0,0,0.536955,12997.3,1283.76)">
                <path d="M2640.95,2095.75C2666.14,2071.91 2702.01,2064.2 2739,2032.38C2773.97,2002.29 2778.15,1956.55 2808.56,1924.69C2835.02,1896.96 2873.41,1894.5 2905.41,1876.65C2934.84,1860.23 2951.79,1832.25 2970.59,1805.75L2970.59,2114.33C2970.59,2114.33 2640.95,2114.33 2640.95,2114.33L2640.95,2095.75ZM2935.18,2078.91C2935.18,2017.95 2935.18,1899.66 2935.18,1899.66C2931.2,1902.49 2927.05,1905.13 2922.66,1907.58C2908.1,1915.7 2892.45,1921.2 2876.89,1926.69C2861.59,1932.08 2846.02,1936.74 2834.18,1949.15C2821.61,1962.31 2815.03,1978.69 2807.41,1994.54C2796.13,2018.03 2783.51,2040.81 2762.09,2059.23C2753.23,2066.86 2744.44,2073.28 2735.81,2078.91L2935.18,2078.91Z"/>
            </g>
        </g>
        <g transform="matrix(1,0,0,1,-0.333333,0)">
            <g transform="matrix(1,0,0,1,6634.49,238.4)">
                <g transform="matrix(251.499,0,0,251.499,7474.03,1882.36)">
                </g>
                <text x="7327.16px" y="1882.36px" style="font-family:'ArialMT', 'Arial', sans-serif;font-size:251.499px;fill:rgb(35,31,32);">=</text>
            </g>
        </g>
        <g transform="matrix(1,0,0,1,-0.333333,0)">
            <g transform="matrix(1,0,0,1,5684.46,238.154)">
                <g transform="matrix(251.499,0,0,251.499,7474.03,1882.36)">
                </g>
                <text x="7327.16px" y="1882.36px" style="font-family:'ArialMT', 'Arial', sans-serif;font-size:251.499px;fill:rgb(35,31,32);">+</text>
            </g>
        </g>
        <g transform="matrix(1,0,0,1,-0.333333,0)">
            <g transform="matrix(1,0,0,1,0,-83.734)">
                <g transform="matrix(5.84441,0,0,5.84441,11354.5,115.045)">
                    <path d="M24.369,346.669C21.969,338.509 34.968,336.097 40.802,339.72C46.635,343.343 50.186,347.034 62.827,341.022C75.469,335.009 84.435,343.827 92.285,338.419C100.136,333.009 109.136,337.827 120.969,340.419C132.803,343.009 146.889,339.573 153.762,335.292C160.636,331.009 162.937,335.841 174.786,340.009C186.636,344.175 208.541,338.794 212.827,342.472C217.113,346.147 226.491,337.374 234.369,341.669C242.248,345.964 250.603,346.827 252.619,346.169C247.431,353.634 258.618,360.169 252.619,361.419C255.303,363.675 246.116,362.71 250.792,366.86C255.471,371.009 233.136,372.063 240.636,376.702C232.303,376.675 240.969,382.661 232.636,383.669C224.303,384.675 207.303,380.276 194.969,385.726C182.636,391.177 170.136,378.884 151.886,386.919C138.785,392.687 126.436,382.327 115.369,386.919C104.302,391.509 92.968,385.403 76.468,388.872C59.969,392.343 54.596,384.394 42.699,386.919C51.771,383.337 30.227,381.325 37.931,377.917C41.802,375.509 22.803,368.735 35.136,366.622C20.302,360.509 38.89,357.112 31.066,354.976C23.316,352.86 33.219,342.175 24.369,346.669Z" style="fill:rgb(98,203,230);fill-rule:nonzero;"/>
                </g>
                <g transform="matrix(5.84441,0,0,5.84441,11354.5,115.045)">
                    <path d="M51.617,345.201C47.476,345.201 44.751,343.443 41.789,341.533C41.297,341.217 40.794,340.893 40.274,340.569C39.805,340.277 39.661,339.661 39.952,339.192C40.244,338.723 40.859,338.579 41.33,338.87C41.86,339.199 42.372,339.529 42.873,339.853C47.822,343.045 51.399,345.353 62.397,340.119C69.298,336.838 75.083,337.781 80.189,338.616C84.547,339.329 88.31,339.943 91.718,337.596C98.122,333.182 105.201,335.153 113.396,337.436C115.88,338.128 118.449,338.844 121.183,339.442C132.311,341.874 146.218,338.813 153.233,334.443C158.362,331.246 161.337,332.734 166.265,335.198C168.531,336.331 171.351,337.74 175.118,339.065C181.153,341.187 189.949,340.753 197.71,340.37C205.214,339.998 211.14,339.706 213.478,341.713C215.04,343.053 217.846,342.172 221.095,341.151C225.17,339.872 230.242,338.28 234.848,340.791C235.333,341.056 235.512,341.663 235.247,342.147C234.982,342.632 234.375,342.812 233.891,342.547C230.031,340.442 225.602,341.832 221.694,343.06C218.036,344.209 214.58,345.293 212.176,343.23C210.442,341.742 204.304,342.046 197.809,342.367C189.864,342.761 180.86,343.204 174.455,340.952C170.568,339.585 167.687,338.145 165.371,336.987C160.632,334.618 158.47,333.537 154.291,336.141C147.037,340.658 132.82,344.035 120.755,341.396C117.967,340.785 115.37,340.062 112.859,339.362C104.83,337.126 98.486,335.359 92.853,339.242C88.78,342.047 84.45,341.339 79.867,340.591C75.051,339.803 69.594,338.912 63.257,341.926C58.254,344.305 54.575,345.201 51.617,345.201Z" style="fill:rgb(26,160,155);fill-rule:nonzero;"/>
                </g>
                <g transform="matrix(5.84441,0,0,5.84441,11354.5,115.045)">
                    <path d="M171.011,347.259C187.386,337.905 184.735,315.134 207.186,318.259C222.325,324.944 212.112,339.579 217.124,346.169C203.636,354.009 174.261,349.259 171.011,347.259Z" style="fill:rgb(98,203,230);fill-rule:nonzero;"/>
                </g>
                <g transform="matrix(5.84441,0,0,5.84441,11354.5,115.045)">
                    <path d="M194.869,340.161C194.625,340.161 194.411,339.982 194.375,339.733C193.45,333.415 196.684,327.48 202.421,324.967C202.677,324.857 202.97,324.972 203.08,325.225C203.191,325.478 203.076,325.771 202.823,325.883C197.503,328.214 194.506,333.722 195.364,339.589C195.404,339.862 195.215,340.116 194.941,340.156C194.917,340.159 194.893,340.161 194.869,340.161Z" style="fill:rgb(26,160,155);fill-rule:nonzero;"/>
                </g>
                <g transform="matrix(5.84441,0,0,5.84441,11354.5,115.045)">
                    <path d="M204.37,347.401C204.216,347.401 204.064,347.331 203.966,347.197C197.834,338.855 204.338,331.812 205.704,330.484C205.902,330.292 206.22,330.297 206.411,330.494C206.604,330.692 206.599,331.009 206.401,331.201C205.14,332.428 199.131,338.932 204.772,346.605C204.936,346.828 204.888,347.141 204.666,347.305C204.576,347.37 204.472,347.401 204.37,347.401Z" style="fill:rgb(26,160,155);fill-rule:nonzero;"/>
                </g>
                <g transform="matrix(5.84441,0,0,5.84441,11354.5,115.045)">
                    <path d="M252.619,362.419C252.193,362.419 251.798,362.145 251.665,361.717C249.815,355.796 241.735,348.032 233.288,349.329C232.19,349.498 231.089,349.718 230.025,349.93C224.099,351.11 217.974,352.33 214.655,343.722C214.456,343.207 214.713,342.628 215.228,342.43C215.742,342.229 216.322,342.486 216.521,343.003C219.234,350.041 223.598,349.172 229.634,347.968C230.72,347.752 231.842,347.528 232.983,347.353C242.615,345.874 251.466,354.371 253.573,361.121C253.738,361.648 253.444,362.209 252.917,362.373C252.818,362.404 252.718,362.419 252.619,362.419Z" style="fill:rgb(26,160,155);fill-rule:nonzero;"/>
                </g>
                <g transform="matrix(5.84441,0,0,5.84441,11354.5,115.045)">
                    <path d="M167.109,347.507C179.636,346.509 184.728,323.854 200.369,315.618C216.011,307.384 237.047,337.206 216.24,343.933C208.62,346.396 202.235,339.991 207.186,335.749C202.011,333.009 203.353,330.228 204.119,328.931C200.619,326.97 200.464,322.591 203.825,320.425C191.761,319.759 183.082,348.132 167.109,347.507Z" style="fill:white;fill-rule:nonzero;"/>
                </g>
                <g transform="matrix(5.84441,0,0,5.84441,11354.5,115.045)">
                    <path d="M203.406,319.413C203.563,319.413 203.722,319.418 203.88,319.427C204.313,319.45 204.681,319.75 204.792,320.169C204.902,320.588 204.73,321.03 204.366,321.266C203.074,322.099 202.356,323.353 202.398,324.706C202.44,326.073 203.246,327.295 204.608,328.059C204.843,328.189 205.015,328.41 205.084,328.671C205.155,328.931 205.117,329.208 204.98,329.439C204.579,330.118 204.203,330.933 204.458,331.833C204.748,332.863 205.853,333.912 207.653,334.865C207.946,335.021 208.143,335.31 208.179,335.639C208.216,335.968 208.087,336.293 207.836,336.509C206.576,337.588 206.156,338.825 206.623,340.086C207.247,341.772 209.587,343.479 212.854,343.479C213.873,343.479 214.908,343.313 215.932,342.981C221.872,341.061 224.662,336.95 223.789,331.406C222.606,323.908 214.639,315.192 206.137,315.192C204.271,315.192 202.487,315.633 200.835,316.503C193.583,320.322 188.515,327.545 184.044,333.919C181.898,336.978 179.803,339.965 177.566,342.434C181.02,339.633 184.183,335.747 187.29,331.93C192.529,325.493 197.478,319.413 203.406,319.413ZM167.627,348.517C167.441,348.517 167.257,348.514 167.07,348.506C166.541,348.485 166.12,348.057 166.109,347.527C166.099,346.998 166.502,346.552 167.029,346.51C173.108,346.025 177.417,339.883 182.407,332.77C187.008,326.211 192.223,318.777 199.903,314.733C201.846,313.711 203.943,313.192 206.137,313.192C215.601,313.192 224.459,322.816 225.764,331.095C226.794,337.632 223.435,342.657 216.547,344.884C215.324,345.279 214.082,345.479 212.854,345.479C209.104,345.479 205.771,343.547 204.747,340.779C204.132,339.117 204.441,337.419 205.585,335.971C203.928,334.896 202.903,333.69 202.533,332.376C202.182,331.132 202.479,330.031 202.814,329.269C201.339,328.146 200.453,326.52 200.399,324.768C200.367,323.72 200.635,322.699 201.157,321.791C197.006,323.16 193.022,328.056 188.841,333.192C182.994,340.375 176.368,348.516 167.628,348.517L167.627,348.517Z" style="fill:rgb(26,160,155);fill-rule:nonzero;"/>
                </g>
                <g transform="matrix(5.84441,0,0,5.84441,11354.5,115.045)">
                    <path d="M165.341,346.769C149.761,347.384 140.978,334.634 147.119,317.009C146.261,299.259 132.85,297.761 124.761,310.634C116.672,323.505 117.353,341.399 109.119,349.079C125.011,354.634 150.296,350.53 165.341,346.769Z" style="fill:rgb(98,203,230);fill-rule:nonzero;"/>
                </g>
                <g transform="matrix(5.84441,0,0,5.84441,11354.5,115.045)">
                    <path d="M92.619,327.116C84.869,333.2 85.718,347.425 92.052,350.259C68.219,360.675 61.969,346.259 61.885,345.925C61.802,345.591 74.519,321.175 77.869,320.425C81.219,319.675 94.202,322.616 92.619,327.116Z" style="fill:rgb(98,203,230);fill-rule:nonzero;"/>
                </g>
                <g transform="matrix(5.84441,0,0,5.84441,11354.5,115.045)">
                    <path d="M162.786,323.161C157.936,323.257 157.364,327.177 158.863,327.632C161.216,328.345 163.428,324.565 162.786,323.161Z" style="fill:white;fill-rule:nonzero;"/>
                </g>
                <g transform="matrix(5.84441,0,0,5.84441,11354.5,115.045)">
                    <path d="M162.135,323.952C159.812,324.2 159.001,325.469 158.895,326.236C158.843,326.609 158.949,326.874 159.081,326.914C160.005,327.191 160.995,326.31 161.53,325.477C161.91,324.886 162.087,324.338 162.135,323.952ZM159.457,328.471C159.183,328.471 158.91,328.43 158.646,328.35C157.751,328.078 157.255,327.146 157.409,326.031C157.652,324.277 159.404,322.478 162.771,322.411C163.064,322.415 163.343,322.577 163.468,322.85C163.938,323.877 163.427,325.299 162.792,326.287C161.914,327.654 160.667,328.471 159.457,328.471Z" style="fill:rgb(26,160,155);fill-rule:nonzero;"/>
                </g>
                <g transform="matrix(5.84441,0,0,5.84441,11354.5,115.045)">
                    <path d="M231.056,335.317C235.85,334.573 235.89,330.61 234.344,330.362C231.916,329.972 230.231,334.013 231.056,335.317Z" style="fill:white;fill-rule:nonzero;"/>
                </g>
                <g transform="matrix(5.84441,0,0,5.84441,11354.5,115.045)">
                    <path d="M234.015,331.086C233.35,331.086 232.646,331.642 232.133,332.573C231.738,333.289 231.59,333.985 231.594,334.446C233.864,333.891 234.497,332.523 234.499,331.748C234.5,331.372 234.36,331.125 234.225,331.103C234.154,331.092 234.084,331.086 234.015,331.086ZM231.056,336.067C230.802,336.067 230.561,335.938 230.422,335.719C229.782,334.706 230.16,333.046 230.819,331.85C231.706,330.241 233.037,329.395 234.463,329.622C235.384,329.77 236.002,330.625 235.999,331.751C235.995,333.522 234.5,335.542 231.171,336.059C231.133,336.064 231.094,336.067 231.056,336.067Z" style="fill:rgb(26,160,155);fill-rule:nonzero;"/>
                </g>
                <g transform="matrix(5.84441,0,0,5.84441,11354.5,115.045)">
                    <path d="M167.662,313.503C166.759,316.476 162.429,317.86 164.637,319.948C166.322,321.542 169.137,318.353 167.662,313.503Z" style="fill:white;fill-rule:nonzero;"/>
                </g>
                <g transform="matrix(5.84441,0,0,5.84441,11354.5,115.045)">
                    <path d="M167.312,315.665C166.914,316.166 166.469,316.614 166.05,317.036C165.416,317.677 164.76,318.338 164.767,318.773C164.77,318.952 164.9,319.164 165.152,319.403C165.301,319.544 165.45,319.612 165.607,319.612C165.898,319.612 166.248,319.376 166.542,318.979C167.034,318.316 167.412,317.169 167.312,315.665ZM165.607,321.112L165.606,321.112C165.063,321.112 164.55,320.898 164.122,320.493C163.564,319.966 163.277,319.396 163.268,318.798C163.25,317.73 164.093,316.881 164.985,315.98C165.755,315.203 166.629,314.322 166.944,313.285C167.04,312.969 167.331,312.753 167.662,312.753C167.992,312.753 168.283,312.969 168.379,313.284C169.154,315.83 168.917,318.293 167.747,319.873C167.154,320.672 166.395,321.112 165.607,321.112Z" style="fill:rgb(26,160,155);fill-rule:nonzero;"/>
                </g>
                <g transform="matrix(5.84441,0,0,5.84441,11354.5,115.045)">
                    <path d="M106.11,325.058C106.136,327.231 101.502,328.157 103.71,330.245C105.395,331.839 107.636,327.874 106.11,325.058Z" style="fill:white;fill-rule:nonzero;"/>
                </g>
                <g transform="matrix(5.84441,0,0,5.84441,11354.5,115.045)">
                    <path d="M105.869,327.121C105.578,327.417 105.259,327.682 104.966,327.927C104.479,328.333 103.873,328.838 103.863,329.145C103.859,329.276 103.991,329.479 104.225,329.7C104.338,329.807 104.442,329.86 104.536,329.86C104.728,329.86 105.051,329.642 105.343,329.151C105.652,328.632 105.871,327.896 105.869,327.121ZM104.536,331.36C104.053,331.36 103.589,331.163 103.194,330.79C102.625,330.252 102.346,329.683 102.364,329.098C102.395,328.117 103.214,327.435 104.005,326.774C104.675,326.217 105.367,325.64 105.36,325.066C105.356,324.722 105.588,324.418 105.922,324.332C106.256,324.243 106.605,324.396 106.77,324.7C107.747,326.505 107.405,328.622 106.631,329.919C106.086,330.835 105.322,331.36 104.536,331.36Z" style="fill:rgb(26,160,155);fill-rule:nonzero;"/>
                </g>
                <g transform="matrix(5.84441,0,0,5.84441,11354.5,115.045)">
                    <path d="M128.108,365.603C126.057,365.604 124.445,364.954 123.41,364.371C120.108,362.511 117.978,358.722 118.11,354.94C118.13,354.389 118.587,353.935 119.145,353.977C119.697,353.995 120.128,354.459 120.109,355.011C120.002,358.064 121.724,361.126 124.392,362.629C127.131,364.171 130.416,363.857 133.642,361.744C134.104,361.443 134.725,361.572 135.026,362.033C135.329,362.495 135.2,363.115 134.738,363.418C132.233,365.058 129.987,365.603 128.108,365.603Z" style="fill:rgb(26,160,155);fill-rule:nonzero;"/>
                </g>
                <g transform="matrix(5.84441,0,0,5.84441,11354.5,115.045)">
                    <path d="M76.302,340.919C76.083,340.919 75.882,340.774 75.821,340.553C74.755,336.729 77.835,328.654 81.503,325.657C81.717,325.48 82.032,325.514 82.207,325.728C82.382,325.941 82.35,326.257 82.136,326.431C78.77,329.182 75.819,336.82 76.784,340.285C76.858,340.551 76.703,340.826 76.437,340.9C76.392,340.913 76.346,340.919 76.302,340.919Z" style="fill:rgb(26,160,155);fill-rule:nonzero;"/>
                </g>
                <g transform="matrix(5.84441,0,0,5.84441,11354.5,115.045)">
                    <path d="M88.785,358.534C88.651,358.534 88.518,358.48 88.419,358.375C77.975,347.17 79.433,333.102 85.208,324.772C85.364,324.546 85.677,324.49 85.903,324.646C86.13,324.804 86.187,325.115 86.03,325.343C82.041,331.095 77.561,345.259 89.151,357.693C89.339,357.896 89.328,358.212 89.126,358.4C89.03,358.489 88.907,358.534 88.785,358.534Z" style="fill:rgb(26,160,155);fill-rule:nonzero;"/>
                </g>
                <g transform="matrix(5.84441,0,0,5.84441,11354.5,115.045)">
                    <path d="M129.369,327.731C129.095,327.731 128.871,327.511 128.869,327.236C128.8,320.69 132.773,309.531 139.396,306.228C139.645,306.104 139.944,306.206 140.066,306.451C140.19,306.698 140.089,306.999 139.842,307.122C133.659,310.207 129.804,321.09 129.869,327.227C129.871,327.502 129.649,327.729 129.375,327.731L129.369,327.731Z" style="fill:rgb(26,160,155);fill-rule:nonzero;"/>
                </g>
                <g transform="matrix(5.84441,0,0,5.84441,11354.5,115.045)">
                    <path d="M137.995,340.161C137.844,340.161 137.695,340.094 137.597,339.965C135.351,337.024 133.423,330.752 134.499,323.93C135.276,318.999 137.922,311.933 146.109,306.264C146.337,306.104 146.648,306.163 146.805,306.391C146.962,306.617 146.906,306.929 146.679,307.086C138.782,312.553 136.234,319.348 135.487,324.085C134.457,330.617 136.271,336.581 138.392,339.357C138.559,339.577 138.517,339.891 138.298,340.059C138.207,340.128 138.101,340.161 137.995,340.161Z" style="fill:rgb(26,160,155);fill-rule:nonzero;"/>
                </g>
                <g transform="matrix(5.84441,0,0,5.84441,11354.5,115.045)">
                    <path d="M152.97,347.401C152.954,347.401 152.938,347.4 152.921,347.399C147.231,346.853 143.787,343.104 141.898,340.057C138.588,334.715 137.902,328.145 139.152,324.879C139.251,324.621 139.542,324.493 139.798,324.591C140.056,324.689 140.185,324.979 140.086,325.236C138.949,328.208 139.643,334.519 142.748,339.53C144.518,342.386 147.735,345.896 153.017,346.403C153.292,346.43 153.493,346.675 153.467,346.949C153.442,347.208 153.225,347.401 152.97,347.401Z" style="fill:rgb(26,160,155);fill-rule:nonzero;"/>
                </g>
                <g transform="matrix(5.84441,0,0,5.84441,11354.5,115.045)">
                    <path d="M156.804,346.341C156.735,346.341 156.667,346.334 156.597,346.319C151.365,345.22 148.306,341.244 146.661,338.103C143.98,332.983 143.118,326.038 144.698,322.292C144.912,321.784 145.498,321.547 146.008,321.759C146.517,321.974 146.755,322.561 146.541,323.069C145.362,325.864 145.75,332.052 148.433,337.175C149.878,339.936 152.539,343.423 157.008,344.362C157.549,344.476 157.895,345.006 157.781,345.547C157.682,346.018 157.267,346.341 156.804,346.341Z" style="fill:rgb(26,160,155);fill-rule:nonzero;"/>
                </g>
                <g transform="matrix(5.84441,0,0,5.84441,11354.5,115.045)">
                    <path d="M93.479,352.79C93.337,352.79 93.194,352.76 93.057,352.696C89.693,351.132 87.303,347.978 86.326,343.815C85.089,338.546 86.334,332.408 89.422,328.545C89.767,328.113 90.395,328.042 90.828,328.388C91.259,328.732 91.329,329.362 90.984,329.793C88.259,333.203 87.169,338.654 88.273,343.358C89.106,346.91 91.105,349.583 93.901,350.884C94.401,351.116 94.619,351.711 94.386,352.212C94.216,352.576 93.856,352.79 93.479,352.79Z" style="fill:rgb(26,160,155);fill-rule:nonzero;"/>
                </g>
                <g transform="matrix(5.84441,0,0,5.84441,11354.5,115.045)">
                    <path d="M42.7,369.669C42.366,369.669 42.04,369.502 41.85,369.198C41.558,368.729 41.701,368.112 42.169,367.82C45.785,365.565 49.236,365.516 53.231,365.457C55.706,365.422 58.511,365.381 61.694,364.764C62.239,364.655 62.761,365.013 62.867,365.555C62.972,366.097 62.617,366.622 62.075,366.727C58.718,367.378 55.818,367.42 53.26,367.457C49.411,367.514 46.371,367.558 43.228,369.518C43.064,369.62 42.88,369.669 42.7,369.669Z" style="fill:rgb(26,160,155);fill-rule:nonzero;"/>
                </g>
                <g transform="matrix(5.84441,0,0,5.84441,11354.5,115.045)">
                    <path d="M88.354,383.192C81.03,383.192 75.818,380.848 71.123,378.734C68.773,377.678 66.553,376.679 64.345,376.141C60.967,375.315 57.24,376.42 53.294,377.587C48.915,378.881 44.387,380.22 40.071,378.874C39.544,378.709 39.25,378.148 39.414,377.621C39.578,377.094 40.137,376.801 40.667,376.964C44.403,378.13 48.447,376.935 52.728,375.669C56.754,374.478 60.919,373.246 64.818,374.197C67.206,374.778 69.507,375.814 71.944,376.911C77.382,379.358 83.545,382.132 93.004,380.875C99.366,380.031 103,378.077 106.207,376.353C109.934,374.348 113.457,372.455 120.053,373.013C126.027,373.518 129.465,375.143 132.228,376.448C135.103,377.808 137.18,378.792 140.971,378.221C144.056,377.759 147.474,375.688 151.092,373.494C156.504,370.214 162.647,366.49 169.548,367.012C174.704,367.396 178.222,369.648 181.624,371.826C185.987,374.619 190.106,377.263 197.777,376.646C203.822,376.166 209.214,375.155 213.972,374.264C220.443,373.052 226.033,372.006 230.944,372.729C233.912,373.166 235.91,373.791 237.516,374.294C240.384,375.191 241.824,375.643 245.731,373.997C246.24,373.786 246.827,374.021 247.041,374.531C247.255,375.04 247.016,375.626 246.507,375.841C241.927,377.769 239.935,377.146 236.918,376.202C235.38,375.721 233.464,375.121 230.652,374.707C226.071,374.031 220.635,375.05 214.34,376.229C209.534,377.131 204.086,378.151 197.935,378.641C189.599,379.305 184.994,376.358 180.545,373.511C177.206,371.372 174.052,369.353 169.399,369.006C163.124,368.542 157.536,371.928 152.128,375.204C148.333,377.505 144.75,379.677 141.268,380.199C136.875,380.854 134.326,379.651 131.373,378.256C128.619,376.955 125.5,375.479 119.885,375.005C113.877,374.499 110.912,376.094 107.154,378.114C103.797,379.919 99.992,381.966 93.267,382.857C91.526,383.089 89.893,383.192 88.354,383.192Z" style="fill:rgb(26,160,155);fill-rule:nonzero;"/>
                </g>
                <g transform="matrix(5.84441,0,0,5.84441,11354.5,115.045)">
                    <path d="M177.415,362.286C175.584,362.286 173.97,361.896 172.696,361.431C168.455,359.882 165.541,356.701 164.627,354.401C164.423,353.888 164.674,353.307 165.188,353.103C165.702,352.9 166.282,353.149 166.486,353.663C167.264,355.622 169.882,358.274 173.382,359.552C175.594,360.36 179.015,360.903 182.741,358.905C183.228,358.644 183.834,358.828 184.095,359.313C184.356,359.8 184.173,360.406 183.687,360.667C181.456,361.864 179.318,362.286 177.415,362.286Z" style="fill:rgb(26,160,155);fill-rule:nonzero;"/>
                </g>
                <g transform="matrix(5.84441,0,0,5.84441,11354.5,115.045)">
                    <path d="M251.638,369.009C251.328,369.009 251.023,368.866 250.828,368.597C244.76,360.256 235.834,358.036 225.694,362.347C224.704,362.769 223.764,363.179 222.87,363.569C214.597,367.184 209.604,369.363 203.883,362.499C203.529,362.074 203.586,361.443 204.011,361.09C204.435,360.737 205.065,360.794 205.419,361.218C210.18,366.932 213.906,365.303 222.069,361.736C222.969,361.343 223.915,360.931 224.912,360.507C235.835,355.861 245.871,358.382 252.445,367.421C252.771,367.867 252.672,368.492 252.225,368.817C252.048,368.946 251.842,369.009 251.638,369.009Z" style="fill:rgb(26,160,155);fill-rule:nonzero;"/>
                </g>
                <g transform="matrix(5.84441,0,0,5.84441,11354.5,115.045)">
                    <path d="M75.645,385.793C73.178,385.793 71.135,384.918 69.002,384.005C64.96,382.273 60.378,380.313 51.377,384.129C51.124,384.236 50.83,384.119 50.722,383.864C50.614,383.61 50.733,383.316 50.987,383.209C60.38,379.226 65.169,381.276 69.396,383.086C72.164,384.271 74.554,385.291 77.906,384.529C78.171,384.464 78.444,384.636 78.505,384.905C78.566,385.174 78.398,385.442 78.129,385.504C77.248,385.706 76.425,385.793 75.645,385.793Z" style="fill:rgb(26,160,155);fill-rule:nonzero;"/>
                </g>
                <g transform="matrix(5.84441,0,0,5.84441,11354.5,115.045)">
                    <path d="M181.984,360.444C197.761,352.009 199.487,350.456 207.999,351.231C216.511,352.009 214.639,363.106 206.011,356.798C207.511,362.884 199.516,365.554 196.638,361.593C196.386,368.384 188.082,364.132 181.984,360.444Z" style="fill:white;fill-rule:nonzero;"/>
                </g>
                <g transform="matrix(5.84441,0,0,5.84441,11354.5,115.045)">
                    <path d="M184.016,360.489C186.546,361.958 190.747,364.188 193.342,364.188C194.484,364.188 195.553,363.869 195.639,361.556C195.655,361.13 195.939,360.761 196.347,360.636C196.755,360.512 197.196,360.66 197.447,361.005C198.37,362.274 199.788,362.464 200.552,362.464C202.051,362.464 203.517,361.782 204.377,360.685C205.154,359.692 205.383,358.432 205.04,357.037C204.939,356.629 205.104,356.201 205.454,355.967C205.804,355.735 206.261,355.743 206.601,355.99C208.567,357.428 209.904,357.729 210.68,357.729C212.308,357.729 212.493,356.448 212.511,356.057C212.573,354.691 211.398,352.546 207.908,352.228C206.617,352.109 205.58,352.055 204.645,352.055C199.663,352.055 196.713,353.646 186.942,358.914C186.027,359.407 185.054,359.933 184.016,360.489ZM193.342,366.188C189.981,366.188 185.23,363.576 181.466,361.3C181.159,361.114 180.975,360.777 180.984,360.418C180.994,360.059 181.195,359.732 181.512,359.563C183.149,358.688 184.635,357.886 185.993,357.154C195.84,351.844 199.158,350.055 204.645,350.055C205.642,350.055 206.736,350.112 208.09,350.235C212.462,350.635 214.628,353.512 214.508,356.147C214.413,358.256 212.838,359.729 210.68,359.729C209.605,359.729 208.432,359.391 207.176,358.721C207.09,359.898 206.676,360.993 205.952,361.918C204.721,363.488 202.652,364.464 200.552,364.464C199.349,364.464 198.232,364.146 197.306,363.562C196.528,365.802 194.587,366.188 193.342,366.188Z" style="fill:rgb(26,160,155);fill-rule:nonzero;"/>
                </g>
                <g transform="matrix(5.84441,0,0,5.84441,11354.5,115.045)">
                    <path d="M42.136,353.276C51.302,357.759 55.914,353.284 62.861,338.017C69.802,322.763 73.885,315.341 85.619,313.679C104.803,310.96 104.136,335.347 93.385,326.419C90.552,332.259 85.452,328.21 85.619,326.044C82.535,331.126 76.289,330.169 78.045,324.255C66.221,330.714 63.635,368.032 42.136,353.276Z" style="fill:white;fill-rule:nonzero;"/>
                </g>
                <g transform="matrix(5.84441,0,0,5.84441,11354.5,115.045)">
                    <path d="M50.356,355.656C58.03,356.402 62.505,347.356 66.81,338.604C70.045,332.028 73.1,325.816 77.566,323.377C77.921,323.183 78.359,323.223 78.674,323.478C78.989,323.731 79.119,324.151 79.004,324.54C78.606,325.882 78.659,326.987 79.154,327.651C79.577,328.218 80.22,328.337 80.686,328.337C81.833,328.337 83.506,327.599 84.764,325.525C85.004,325.13 85.486,324.951 85.925,325.092C86.365,325.233 86.651,325.659 86.616,326.12C86.598,326.354 86.785,326.829 87.239,327.318C87.74,327.86 88.614,328.438 89.563,328.438C90.994,328.438 91.942,327.103 92.485,325.982C92.62,325.706 92.874,325.507 93.174,325.441C93.475,325.378 93.788,325.453 94.024,325.649C95.76,327.092 96.951,327.395 97.644,327.395L97.645,327.395C99.3,327.394 99.887,325.572 99.887,324.012C99.886,320.321 96.8,314.466 88.52,314.466C87.638,314.466 86.71,314.534 85.759,314.669C74.894,316.208 70.908,322.748 63.772,338.431C59.334,348.183 55.568,354.322 50.356,355.656ZM51.253,357.7C48.267,357.7 45.1,356.523 41.57,354.101C41.138,353.805 41.008,353.225 41.272,352.772C41.537,352.32 42.106,352.148 42.576,352.378C44.712,353.423 46.531,353.931 48.135,353.931C52.85,353.931 56.465,349.658 61.951,337.603C68.849,322.444 73.027,314.452 85.479,312.688C86.522,312.541 87.544,312.466 88.52,312.466C98.256,312.466 101.887,319.548 101.887,324.012C101.888,327.23 100.183,329.394 97.645,329.395L97.644,329.395C96.425,329.395 95.099,328.896 93.689,327.91C92.261,330.083 90.538,330.438 89.564,330.438C88.21,330.438 86.793,329.78 85.772,328.678C85.599,328.491 85.443,328.299 85.307,328.103C83.981,329.511 82.316,330.337 80.686,330.337C79.381,330.337 78.268,329.809 77.552,328.848C77.163,328.327 76.789,327.541 76.742,326.415C73.689,329.151 71.207,334.196 68.605,339.487C64.2,348.441 59.645,357.7 51.253,357.7Z" style="fill:rgb(26,160,155);fill-rule:nonzero;"/>
                </g>
                <g transform="matrix(5.84441,0,0,5.84441,11354.5,115.045)">
                    <path d="M108.386,349.675C115.966,339.181 114.746,309.169 131.123,299.673C146.49,290.763 161.539,298.413 161.171,312.669C160.803,326.925 133.969,326.259 141.136,312.091C135.803,313.425 133.936,308.175 137.036,304.675C120.803,306.091 121.886,339.386 108.386,349.675Z" style="fill:white;fill-rule:nonzero;"/>
                </g>
                <g transform="matrix(5.84441,0,0,5.84441,11354.5,115.045)">
                    <path d="M144.261,296.855C140.149,296.855 135.78,298.129 131.625,300.538C121.753,306.262 118.462,319.938 115.559,332.004C114.549,336.204 113.571,340.27 112.357,343.743C115.385,339.078 117.502,332.917 119.57,326.9C123.525,315.393 127.26,304.523 136.949,303.679C137.351,303.638 137.744,303.859 137.929,304.225C138.113,304.591 138.056,305.031 137.784,305.338C136.595,306.681 136.212,308.402 136.808,309.726C137.417,311.079 138.947,311.607 140.893,311.121C141.273,311.024 141.672,311.16 141.917,311.467C142.162,311.772 142.205,312.193 142.028,312.542C140.725,315.119 140.572,317.354 141.588,319.006C142.758,320.908 145.421,322.044 148.711,322.044L148.713,322.044C154.287,322.043 160.012,318.813 160.171,312.644C160.285,308.224 158.865,304.368 156.063,301.492C153.148,298.502 148.958,296.855 144.261,296.855ZM108.386,350.675C108.133,350.675 107.881,350.579 107.688,350.391C107.333,350.045 107.285,349.491 107.575,349.089C110.299,345.318 111.91,338.624 113.615,331.536C116.612,319.08 120.009,304.962 130.621,298.808C135.081,296.222 139.797,294.855 144.261,294.855C149.501,294.855 154.201,296.717 157.495,300.097C160.682,303.367 162.299,307.724 162.17,312.694C161.978,320.145 155.255,324.043 148.713,324.044L148.711,324.044C144.721,324.044 141.421,322.552 139.884,320.053C139.048,318.693 138.393,316.479 139.524,313.303L139.52,313.303C137.426,313.304 135.772,312.299 134.984,310.547C134.368,309.18 134.396,307.576 134.995,306.087C128.1,308.235 124.867,317.643 121.461,327.55C118.39,336.487 115.214,345.728 108.992,350.47C108.812,350.607 108.599,350.675 108.386,350.675Z" style="fill:rgb(26,160,155);fill-rule:nonzero;"/>
                </g>
                <g transform="matrix(5.84441,0,0,5.84441,11354.5,115.045)">
                    <path d="M60.369,366.149C68.619,363.702 78.885,364.919 86.57,356.194C97.566,343.712 112.386,340.259 121.011,344.259C129.636,348.259 119.11,359.542 113.136,353.276C116.136,361.593 106.334,361.669 103.459,358.419C105.209,367.044 93.635,369.919 89.885,362.259C77.76,370.724 73.352,365.845 60.369,366.149Z" style="fill:white;fill-rule:nonzero;"/>
                </g>
                <g transform="matrix(5.84441,0,0,5.84441,11354.5,115.045)">
                    <path d="M68.382,365.555C69.082,365.633 69.753,365.715 70.404,365.795C72.51,366.053 74.33,366.275 76.172,366.275C79.399,366.275 83.225,365.689 89.313,361.438C89.552,361.272 89.853,361.218 90.136,361.291C90.418,361.363 90.655,361.557 90.783,361.819C91.973,364.25 94.217,365.7 96.784,365.7C98.639,365.7 100.387,364.917 101.458,363.606C102.524,362.303 102.876,360.578 102.479,358.618C102.389,358.174 102.608,357.726 103.013,357.523C103.419,357.322 103.908,357.417 104.208,357.757C105.085,358.748 106.879,359.413 108.674,359.413C110.26,359.413 111.537,358.892 112.176,357.981C112.865,357.001 112.872,355.491 112.195,353.615C112.035,353.171 112.208,352.675 112.61,352.426C113.013,352.177 113.533,352.245 113.859,352.586C114.837,353.612 115.986,354.132 117.273,354.132L117.274,354.132C119.869,354.132 122.63,351.93 123.184,349.421C123.583,347.609 122.686,346.138 120.59,345.166C118.461,344.179 115.963,343.678 113.165,343.678C104.251,343.678 94.589,348.604 87.32,356.855C81.715,363.219 74.679,364.528 68.382,365.555ZM76.172,368.275C74.208,368.275 72.242,368.034 70.161,367.78C67.411,367.443 64.261,367.053 60.392,367.149C59.897,367.151 59.459,366.8 59.381,366.305C59.303,365.81 59.604,365.333 60.085,365.19C62.44,364.492 64.878,364.097 67.46,363.678C73.876,362.638 80.509,361.563 85.819,355.533C93.462,346.857 103.686,341.678 113.165,341.678C116.256,341.678 119.037,342.241 121.432,343.352C124.394,344.726 125.745,347.095 125.137,349.852C124.386,353.255 120.786,356.131 117.274,356.132L117.273,356.132C116.363,356.132 115.49,355.946 114.676,355.586C114.798,357.254 114.328,358.397 113.813,359.131C112.794,360.582 110.921,361.413 108.674,361.413C107.238,361.413 105.813,361.077 104.634,360.498C104.552,362.51 103.764,363.946 103.007,364.872C101.56,366.643 99.233,367.7 96.785,367.7L96.784,367.7C93.808,367.7 91.175,366.224 89.55,363.697C84.738,366.897 80.687,368.275 76.172,368.275Z" style="fill:rgb(26,160,155);fill-rule:nonzero;"/>
                </g>
                <g transform="matrix(5.84441,0,0,5.84441,11354.5,115.045)">
                    <path d="M153.261,356.194C155.886,357.007 161.886,355.634 160.127,349.675C165.118,355.468 174.119,341.356 165.326,339.86C150.65,337.366 143.261,358.884 131.636,364.009C138.761,366.259 153.011,363.757 153.261,356.194Z" style="fill:white;fill-rule:nonzero;"/>
                </g>
                <g transform="matrix(5.84441,0,0,5.84441,11354.5,115.045)">
                    <path d="M134.466,363.604C135.431,363.736 136.473,363.804 137.564,363.804C144.664,363.804 152.103,360.945 152.261,356.161C152.271,355.85 152.427,355.561 152.681,355.38C152.934,355.199 153.258,355.146 153.557,355.239C153.912,355.35 154.355,355.407 154.837,355.407C156.094,355.407 157.889,354.968 158.816,353.728C159.513,352.796 159.631,351.527 159.168,349.958C159.035,349.506 159.235,349.022 159.648,348.797C160.063,348.571 160.577,348.664 160.885,349.022C161.48,349.713 162.155,350.063 162.892,350.063C165.094,350.063 167.771,346.979 168.009,344.169C168.166,342.313 167.207,341.194 165.158,340.846C164.431,340.723 163.702,340.66 162.992,340.66C155.806,340.66 150.279,347.117 144.935,353.361C141.646,357.203 138.264,361.153 134.466,363.604ZM137.564,365.804C135.231,365.804 133.078,365.513 131.334,364.962C130.938,364.837 130.66,364.479 130.636,364.063C130.614,363.647 130.852,363.262 131.232,363.094C135.63,361.155 139.412,356.737 143.415,352.061C149.054,345.473 154.886,338.66 162.992,338.66C163.814,338.66 164.656,338.732 165.493,338.874C168.561,339.396 170.247,341.438 170.001,344.337C169.706,347.837 166.469,352.063 162.892,352.063C162.391,352.063 161.905,351.978 161.441,351.81C161.414,353.232 160.922,354.251 160.418,354.925C159.05,356.755 156.638,357.407 154.837,357.407C154.596,357.407 154.358,357.396 154.127,357.374C153.007,362.913 145.194,365.804 137.564,365.804Z" style="fill:rgb(26,160,155);fill-rule:nonzero;"/>
                </g>
                <g transform="matrix(5.84441,0,0,5.84441,11354.5,115.045)">
                    <path d="M109.67,386.684C108.768,386.684 107.838,386.588 106.921,386.386C106.381,386.268 106.041,385.733 106.159,385.194C106.278,384.655 106.813,384.317 107.351,384.433C110.517,385.128 113.591,384.274 114.479,383.039C114.741,382.675 114.75,382.35 114.512,381.951C114.322,381.635 114.322,381.24 114.511,380.924C114.7,380.607 115.048,380.412 115.416,380.438C119.679,380.646 120.867,379.517 120.934,379.229C120.951,379.151 120.808,378.974 120.492,378.838C120.048,378.647 119.803,378.167 119.911,377.696C120.019,377.225 120.437,376.89 120.931,376.92C122.738,376.998 123.363,376.5 123.385,376.308C123.417,376.037 122.883,375.422 121.752,375.211C121.209,375.109 120.852,374.587 120.953,374.044C121.055,373.501 121.577,373.15 122.12,373.244C124.18,373.63 125.548,375.015 125.372,376.537C125.265,377.461 124.539,378.404 122.893,378.771C122.955,379.062 122.954,379.366 122.883,379.676C122.488,381.393 120.205,382.398 116.681,382.457C116.688,383.063 116.494,383.662 116.102,384.207C114.98,385.768 112.454,386.684 109.67,386.684Z" style="fill:rgb(26,160,155);fill-rule:nonzero;"/>
                </g>
                <g transform="matrix(5.84441,0,0,5.84441,11354.5,115.045)">
                    <path d="M155.898,380.856C154.92,380.856 153.826,380.688 152.68,380.341C152.151,380.181 151.852,379.623 152.012,379.094C152.172,378.565 152.732,378.267 153.259,378.427C155.963,379.244 157.671,378.703 157.945,378.246C158.053,378.066 157.801,377.714 157.554,377.466C157.243,377.155 157.171,376.679 157.377,376.29C157.583,375.901 158.018,375.694 158.45,375.776C162.708,376.596 164.938,375.762 165.343,375.044C165.567,374.646 165.158,374.097 164.894,373.805C164.62,373.502 164.558,373.062 164.737,372.694C164.917,372.327 165.304,372.106 165.709,372.137C169.724,372.427 171.691,370.703 171.81,369.755C171.825,369.634 171.861,369.351 171.176,369.229C170.633,369.134 170.27,368.615 170.366,368.071C170.462,367.527 170.979,367.16 171.525,367.261C173.291,367.572 173.938,368.863 173.795,370.003C173.543,372.013 171.115,373.921 167.332,374.147C167.543,375.023 167.27,375.698 167.086,376.024C166.164,377.664 163.512,378.38 159.97,378.022C159.997,378.457 159.896,378.882 159.661,379.273C159.041,380.31 157.659,380.856 155.898,380.856Z" style="fill:rgb(26,160,155);fill-rule:nonzero;"/>
                </g>
                <g transform="matrix(5.84441,0,0,5.84441,11354.5,115.045)">
                    <path d="M215.585,382.636C214.879,382.636 214.124,382.567 213.33,382.42C212.787,382.318 212.429,381.796 212.53,381.253C212.631,380.711 213.151,380.359 213.697,380.453C216.355,380.95 218.211,380.358 218.992,379.702C219.268,379.471 219.323,379.302 219.323,379.269C219.309,379.232 219.144,379.038 218.61,378.875C218.097,378.719 217.799,378.185 217.935,377.665C218.071,377.146 218.595,376.83 219.117,376.942C222.078,377.591 223.889,376.778 224.596,375.8C224.9,375.378 224.957,374.968 224.854,374.796C224.777,374.667 224.512,374.616 224.161,374.661C223.617,374.721 223.112,374.345 223.042,373.797C222.971,373.249 223.357,372.748 223.905,372.677C225.094,372.526 226.067,372.924 226.573,373.773C227.117,374.688 226.981,375.913 226.218,376.971C225.8,377.55 224.381,379.124 221.317,379.18C221.328,379.383 221.307,379.579 221.262,379.763C220.882,381.313 218.707,382.636 215.585,382.636Z" style="fill:rgb(26,160,155);fill-rule:nonzero;"/>
                </g>
                <g transform="matrix(5.84441,0,0,5.84441,11354.5,115.045)">
                    <path d="M186.817,385.06C183.123,385.06 180.671,383.374 178.673,382.002C177.093,380.916 175.845,380.061 174.488,380.342C174.212,380.4 173.952,380.225 173.896,379.955C173.839,379.685 174.013,379.42 174.283,379.363C176.06,378.987 177.533,380.005 179.24,381.178C182.438,383.375 186.418,386.111 194.863,381.744C195.108,381.616 195.41,381.714 195.537,381.959C195.664,382.204 195.568,382.506 195.322,382.633C191.884,384.409 189.111,385.06 186.817,385.06Z" style="fill:rgb(26,160,155);fill-rule:nonzero;"/>
                </g>
                <g transform="matrix(5.84441,0,0,5.84441,11354.5,115.045)">
                    <path d="M136.527,386.344C134.877,386.344 133.305,385.976 131.508,385.5C131.241,385.43 131.082,385.155 131.152,384.889C131.224,384.622 131.497,384.461 131.764,384.533C135.749,385.588 138.628,386.35 145.092,382.052C145.321,381.898 145.632,381.96 145.786,382.19C145.938,382.421 145.876,382.731 145.646,382.884C141.722,385.494 139.034,386.344 136.527,386.344Z" style="fill:rgb(26,160,155);fill-rule:nonzero;"/>
                </g>
                <g transform="matrix(5.84441,0,0,5.84441,11354.5,115.045)">
                    <path d="M206.822,330.744C205.669,330.744 204.518,330.443 203.539,329.745C203.089,329.425 202.984,328.8 203.305,328.351C203.625,327.899 204.249,327.796 204.7,328.116C206.25,329.221 208.733,328.731 210.079,327.578C210.724,327.027 211.369,326.124 210.785,324.956C210.538,324.462 210.738,323.861 211.232,323.614C211.726,323.368 212.326,323.566 212.574,324.062C213.454,325.822 213.008,327.705 211.379,329.098C210.216,330.094 208.517,330.744 206.822,330.744Z" style="fill:rgb(26,160,155);fill-rule:nonzero;"/>
                </g>
                <g transform="matrix(5.84441,0,0,5.84441,11354.5,115.045)">
                    <path d="M210.722,337.528C209.212,337.528 207.769,337.234 206.689,336.617C206.209,336.343 206.043,335.731 206.317,335.253C206.592,334.772 207.202,334.606 207.682,334.881C209.489,335.915 213.65,335.728 215.752,334.047C216.738,333.258 217.043,332.306 216.684,331.137C216.521,330.609 216.817,330.05 217.345,329.887C217.87,329.724 218.433,330.021 218.595,330.549C219.197,332.508 218.632,334.305 217.002,335.608C215.444,336.854 213.007,337.528 210.722,337.528Z" style="fill:rgb(26,160,155);fill-rule:nonzero;"/>
                </g>
                <g transform="matrix(5.84441,0,0,5.84441,11354.5,115.045)">
                    <path d="M82.524,329.919C82.094,329.919 81.697,329.641 81.567,329.208C81.408,328.679 81.707,328.121 82.236,327.962C84.412,327.306 84.828,325.301 84.882,324.165C84.967,322.397 84.289,321.147 83.993,321.026C83.496,320.822 83.213,320.25 83.397,319.745C83.581,319.24 84.093,318.959 84.608,319.123C86.13,319.613 86.908,321.922 86.889,323.949C86.861,326.899 85.338,329.115 82.813,329.876C82.717,329.905 82.62,329.919 82.524,329.919Z" style="fill:rgb(26,160,155);fill-rule:nonzero;"/>
                </g>
                <g transform="matrix(5.84441,0,0,5.84441,11354.5,115.045)">
                    <path d="M91.884,329.507C91.592,329.507 91.302,329.379 91.104,329.133C90.758,328.702 90.827,328.073 91.258,327.728C92.589,326.658 93.438,324.282 93.232,322.201C93.161,321.476 92.888,320.181 91.86,319.646C91.37,319.391 91.18,318.787 91.435,318.297C91.689,317.808 92.292,317.615 92.783,317.872C94.165,318.591 95.031,320.058 95.223,322.005C95.493,324.745 94.352,327.808 92.51,329.286C92.325,329.435 92.104,329.507 91.884,329.507Z" style="fill:rgb(26,160,155);fill-rule:nonzero;"/>
                </g>
                <g transform="matrix(5.84441,0,0,5.84441,11354.5,115.045)">
                    <path d="M139.325,313.26C139.046,313.26 138.781,313.245 138.532,313.218C137.983,313.157 137.587,312.663 137.647,312.114C137.708,311.565 138.206,311.175 138.751,311.229C140.089,311.378 142.25,311.005 143.944,309.471C145.391,308.16 146.144,306.275 146.119,304.02C146.113,303.467 146.556,303.015 147.108,303.009L147.119,303.009C147.667,303.009 148.113,303.449 148.119,303.998C148.158,307.592 146.6,309.764 145.287,310.953C143.398,312.663 141.098,313.26 139.325,313.26Z" style="fill:rgb(26,160,155);fill-rule:nonzero;"/>
                </g>
            </g>
        </g>
        <g transform="matrix(1,0,0,1,-0.333333,0)">
            <g transform="matrix(0.765394,0,0,0.770462,7129.98,-44.6548)">
                <g transform="matrix(1066.1,0,0,1066.1,8724.81,3076.79)">
                </g>
                <text x="8073.59px" y="3076.79px" style="font-family:'ArialMT', 'Arial', sans-serif;font-size:1066.1px;fill:rgb(35,31,32);">T</text>
            </g>
        </g>
    </g>
</svg>
